<?xml version="1.0" encoding="utf-8"?>
<!-- Generator: Adobe Illustrator 24.0.1, SVG Export Plug-In . SVG Version: 6.00 Build 0)  -->
<svg version="1.1" id="Calque_1" xmlns="http://www.w3.org/2000/svg" xmlns:xlink="http://www.w3.org/1999/xlink" x="0px" y="0px"
	 viewBox="0 0 48 48" style="enable-background:new 0 0 48 48;" xml:space="preserve">
<style type="text/css">
	.st0{fill:#FFFFFF;}
	.st1{fill:#215DA7;}
</style>
<circle class="st0" cx="24" cy="24" r="24"/>
<g transform="translate(0.001)">
	<path class="st1" d="M23.2,36.2l-0.8-0.8c0,0,0,0,0,0c0,0,0,0,0,0l-10.1-10c-0.2-0.2-0.3-0.5-0.3-0.8c0-0.3,0.1-0.6,0.4-0.8
		l0.8-0.8c0.4-0.4,1.1-0.5,1.6-0.1c0,0,0,0,0.1,0.1l7.2,7.2V12.5c0-0.6,0.4-1,1-1h2c0.6,0,1,0.4,1,1v17.7l7.4-7.3
		c0.4-0.4,1.1-0.5,1.6-0.1c0,0,0,0,0.1,0.1l0.8,0.8c0.4,0.4,0.5,1.1,0,1.6c0,0,0,0,0,0l-10.1,10l0,0l-0.8,0.8
		C24.4,36.6,23.7,36.6,23.2,36.2C23.2,36.2,23.2,36.2,23.2,36.2z"/>
</g>
</svg>
