<svg xmlns="http://www.w3.org/2000/svg" width="48" height="48" viewBox="0 0 48 48"><defs><style>.a{fill:rgba(141,200,232,0.4);}.b{fill:#215da7;}</style></defs><g transform="translate(-513.837 -100)"><circle class="a" cx="24" cy="24" r="24" transform="translate(513.837 100)"/><g transform="translate(525.837 112)"><path class="b" d="M11.275,24.661l-.806-.806a.041.041,0,0,1-.042-.042L.338,13.766A1.155,1.155,0,0,1,0,12.96a1.045,1.045,0,0,1,.382-.806l.806-.806a1.1,1.1,0,0,1,1.611,0l7.2,7.17V1a1,1,0,0,1,1-1h2a1,1,0,0,1,1,1V18.691l7.409-7.342a1.1,1.1,0,0,1,1.61,0l.806.806a1.126,1.126,0,0,1,0,1.611L13.734,23.813l-.042.042-.806.806a1.128,1.128,0,0,1-1.611,0Z"/></g></g></svg>