<svg xmlns="http://www.w3.org/2000/svg" width="123" height="123" viewBox="0 0 123 123"><defs><style>.a{fill:#fff;}.b{fill:#47545e;}.c{fill:#de0000;}.d{fill:none;}</style></defs><g transform="translate(-0.05 -0.001)"><rect class="a" width="123" height="123" rx="61.5" transform="translate(0.05 0.001)"/><g transform="translate(29.402 20.186)"><g transform="translate(0)"><path class="b" d="M1747.427,980.261a.794.794,0,0,1-.783-.718c-.14-1.277-.249-2.17-.329-2.8a12.721,12.721,0,0,1-.145-1.437c0-1.257,2.389-3.671,3.811-5a.792.792,0,1,1,1.083,1.157,14.9,14.9,0,0,0-3.307,3.876c0,.155.049.549.129,1.207.08.638.194,1.542.334,2.833a.792.792,0,0,1-.7.873A.275.275,0,0,1,1747.427,980.261Z" transform="translate(-1711.928 -897.749)"/><path class="b" d="M1727.941,980.108a.27.27,0,0,1-.089-.01.794.794,0,0,1-.7-.873c.145-1.3.26-2.215.339-2.859.08-.618.135-1.027.135-1.217a17.215,17.215,0,0,0-3.432-3.961.784.784,0,0,1-.04-1.117.8.8,0,0,1,1.122-.04c1.182,1.108,3.936,3.816,3.936,5.118a13.6,13.6,0,0,1-.145,1.417c-.08.638-.194,1.536-.339,2.834A.79.79,0,0,1,1727.941,980.108Z" transform="translate(-1699.451 -897.596)"/><path class="b" d="M1704.846,938.005a5.394,5.394,0,0,0,1.456,3.138c2.849,3.048,8.281,3.048,8.281,3.048s-3.193.993-3.637,3.5a8.077,8.077,0,0,1-2.145,4.514,23.1,23.1,0,0,0-4.285-4.09c-2.889-2.369-1.476-5.083-1.476-5.083l1.805-5.028m0-1.576a1.577,1.577,0,0,0-1.486,1.037l-1.776,4.943a5.763,5.763,0,0,0,1.931,6.934,23.825,23.825,0,0,1,3.981,3.752,1.6,1.6,0,0,0,1.117.678c.065,0,.13.01.195.01a1.587,1.587,0,0,0,1.052-.395,9.493,9.493,0,0,0,2.654-5.427c.26-1.487,2.529-2.255,2.554-2.265a1.587,1.587,0,0,0-.479-3.1c-.05,0-4.789-.045-7.123-2.539a3.842,3.842,0,0,1-1.033-2.155,1.588,1.588,0,0,0-1.372-1.456,1.487,1.487,0,0,0-.215-.02Z" transform="translate(-1686.642 -878.859)"/><path class="b" d="M1758,938l1.811,5.028s1.412,2.714-1.477,5.083a23.6,23.6,0,0,0-4.285,4.09,8.12,8.12,0,0,1-2.155-4.514c-.429-2.509-3.616-3.5-3.616-3.5s5.422,0,8.27-3.048A5.362,5.362,0,0,0,1758,938m0-1.582a1.894,1.894,0,0,0-.239.015,1.584,1.584,0,0,0-1.342,1.476,3.8,3.8,0,0,1-1.023,2.135c-2.314,2.479-7.068,2.549-7.118,2.549a1.585,1.585,0,0,0-.474,3.1c.015.01,2.269.778,2.524,2.265a9.573,9.573,0,0,0,2.674,5.432,1.61,1.61,0,0,0,1.047.394,1.5,1.5,0,0,0,.215-.01,1.6,1.6,0,0,0,1.117-.7h0a23.856,23.856,0,0,1,3.956-3.731,5.767,5.767,0,0,0,1.935-6.939l-1.776-4.943a1.593,1.593,0,0,0-1.5-1.043Z" transform="translate(-1712.222 -878.852)"/><path class="b" d="M1668.93,959.834a.791.791,0,0,1-.264-1.537c1.322-.469,3.392-1.277,5.587-2.13,2.539-.983,5.168-2.005,6.934-2.629a.8.8,0,0,1,1.008.489.787.787,0,0,1-.479,1.008c-1.746.614-4.36,1.632-6.889,2.614-2.2.858-4.285,1.666-5.626,2.145A.847.847,0,0,1,1668.93,959.834Z" transform="translate(-1668.139 -888.437)"/><path class="b" d="M1795.132,959.834a.841.841,0,0,1-.269-.04c-1.337-.479-3.412-1.287-5.607-2.14-2.534-.983-5.158-2-6.909-2.619a.793.793,0,0,1-.484-1.008.8.8,0,0,1,1.013-.489c1.771.628,4.4,1.646,6.953,2.634,2.19.853,4.255,1.656,5.572,2.125a.791.791,0,0,1-.269,1.537Z" transform="translate(-1731.932 -888.437)"/><path class="b" d="M1739.673,953.611h-4.066a.793.793,0,0,1,0-1.586h4.066a.793.793,0,1,1,0,1.586Z" transform="translate(-1705.555 -887.611)"/><g transform="translate(10.114 26.09)"><path class="b" d="M1696.9,883.294a.813.813,0,0,1-.633-.309,4.506,4.506,0,0,0-2.255-1.826c-2.295-.579-2.823-9.353-2.823-10.655,0-3.033,1.058-5.408,2.574-5.762.569-.134,1.651-.1,2.529,1.651a.793.793,0,1,1-1.417.713c-.329-.653-.614-.848-.743-.818-.489.115-1.357,1.621-1.357,4.215,0,3.7,1.028,8.614,1.716,9.148a5.874,5.874,0,0,1,3.038,2.369.79.79,0,0,1-.629,1.272Z" transform="translate(-1691.187 -864.694)"/><path class="b" d="M1726.7,934.554a12.694,12.694,0,0,1-11.084-5.417.793.793,0,0,1,1.287-.928,11.079,11.079,0,0,0,9.8,4.764.791.791,0,0,1,0,1.581Z" transform="translate(-1704.809 -900.152)"/></g><path class="b" d="M1729.878,836.611c-1.053,0-1.053-1.162-1.053-2.923v-5.427c-1.651,1.022-4.873,2.429-10.121,2.429a20.075,20.075,0,0,1-9.518-2.349,12.057,12.057,0,0,0-5.387-1.557c-4.23,0-4.979,1.876-4.979,5.826,0,1.067,0,1.836-.029,2.369-.03.449-.09,1.5-1,1.5-.7,0-.938-.469-2.085-2.733-.339-.678-.624-.828-.708-.828a.35.35,0,0,0-.175.079.806.806,0,0,1-.728.12.8.8,0,0,1-.509-.538,29.236,29.236,0,0,1-.918-8.091c0-10.615,9.527-19.25,21.24-19.25,4.828,0,8.041,1.242,9.558,3.706a7.6,7.6,0,0,1,2.02-.289c6.585,0,9.653,9.448,9.653,15.833a29.794,29.794,0,0,1-.908,8.091.786.786,0,0,1-1.237.419.378.378,0,0,0-.184-.079c-.105,0-.384.169-.714.828C1730.965,835.973,1730.611,836.611,1729.878,836.611Zm-.259-10.725a.8.8,0,0,1,.3.06.789.789,0,0,1,.494.739v6.864c.1-.2.194-.379.264-.519.748-1.487,1.617-1.736,2.235-1.7a30.532,30.532,0,0,0,.638-6.844c0-5.971-2.8-14.246-8.066-14.246a6.223,6.223,0,0,0-2.13.409.8.8,0,0,1-.993-.409c-1.063-2.265-3.906-3.422-8.455-3.422-10.84,0-19.654,7.926-19.654,17.668a29.8,29.8,0,0,0,.644,6.844c.6-.035,1.481.209,2.224,1.7.04.079.075.15.115.224v-.643c0-3.591.509-7.413,6.565-7.413a13.532,13.532,0,0,1,6.056,1.706,18.728,18.728,0,0,0,8.849,2.2c7.388,0,10.316-2.943,10.346-2.968A.788.788,0,0,1,1729.618,825.887Z" transform="translate(-1681.902 -805.24)"/><g transform="translate(0.514 45.602)"><path class="c" d="M1678.033,924.851a5.109,5.109,0,0,1-.779-.065,94.99,94.99,0,0,0-6.979-3.866,16.21,16.21,0,0,1,2.684-10.815,5,5,0,0,1,4.38-.733.792.792,0,0,1-.458,1.516,3.378,3.378,0,0,0-4.345,3.681.8.8,0,0,1-.3.734,3.383,3.383,0,0,0,2.25,6.066.771.771,0,0,1,.7.344.465.465,0,0,1,.06.09,3.406,3.406,0,0,0,2.26,1.417,3.362,3.362,0,0,0,2.519-.609,3.227,3.227,0,0,0,.858-.928.793.793,0,0,1,1.346.838,4.688,4.688,0,0,1-1.272,1.367A4.919,4.919,0,0,1,1678.033,924.851Z" transform="translate(-1669.31 -909.158)"/><path class="c" d="M1691.965,924.591a.795.795,0,0,1-.379-1.5l11.159-5.976a.788.788,0,0,1,1.073.319.8.8,0,0,1-.324,1.077l-11.159,5.986A.819.819,0,0,1,1691.965,924.591Z" transform="translate(-1681.576 -913.571)"/><path class="c" d="M1686.889,915.135a.792.792,0,0,1-.17-1.566l12.376-2.729a.794.794,0,0,1,.339,1.551l-12.371,2.724A1.081,1.081,0,0,1,1686.889,915.135Z" transform="translate(-1678.73 -910.091)"/></g><g transform="translate(31.204 26.09)"><path class="b" d="M1776.9,883.294a.78.78,0,0,1-.479-.16.79.79,0,0,1-.15-1.112,5.944,5.944,0,0,1,3.123-2.4c.6-.5,1.626-5.412,1.626-9.113,0-2.594-.863-4.1-1.352-4.215-.125-.035-.42.165-.749.823a.789.789,0,0,1-1.062.349.8.8,0,0,1-.354-1.067c.883-1.756,1.965-1.786,2.534-1.651,1.512.364,2.569,2.729,2.569,5.762,0,1.546-.519,10.076-2.828,10.655a4.6,4.6,0,0,0-2.25,1.826A.789.789,0,0,1,1776.9,883.294Z" transform="translate(-1759.934 -864.694)"/><path class="b" d="M1740.045,934.554a.791.791,0,1,1,0-1.581,11.082,11.082,0,0,0,9.792-4.764.793.793,0,1,1,1.286.928A12.7,12.7,0,0,1,1740.045,934.554Z" transform="translate(-1739.247 -900.152)"/></g><g transform="translate(41.144 45.598)"><path class="c" d="M1787.412,924.846a4.932,4.932,0,0,1-2.918-.962,4.836,4.836,0,0,1-1.272-1.367.79.79,0,0,1,.249-1.087.8.8,0,0,1,1.1.249,3.265,3.265,0,0,0,.863.928,3.383,3.383,0,0,0,4.729-.743l.065-.09a.848.848,0,0,1,.743-.409,3.409,3.409,0,0,0,2.923-1.382,3.371,3.371,0,0,0-.673-4.684.8.8,0,0,1-.3-.734,3.384,3.384,0,0,0-4.35-3.681.792.792,0,1,1-.459-1.516,6.993,6.993,0,1,1,3.223,13.583,4.909,4.909,0,0,1-3.133,1.83A5.239,5.239,0,0,1,1787.412,924.846Z" transform="translate(-1773.797 -909.148)"/><path class="c" d="M1773.851,924.591a.841.841,0,0,1-.374-.09l-11.164-5.986a.806.806,0,0,1-.325-1.077.8.8,0,0,1,1.078-.319l11.159,5.976a.8.8,0,0,1,.324,1.083A.792.792,0,0,1,1773.851,924.591Z" transform="translate(-1761.897 -913.567)"/><path class="c" d="M1777.373,915.135a1.136,1.136,0,0,1-.175-.02l-12.366-2.724a.794.794,0,0,1,.339-1.551l12.371,2.729a.792.792,0,0,1-.169,1.566Z" transform="translate(-1763.194 -910.087)"/></g></g></g><g transform="translate(47.733 38.465)"><path class="d" d="M1748.447,980.474c-.295-2.723-.469-3.711-.469-4.16,0-.848,2.245-3.193,3.562-4.42" transform="translate(-1713.733 -899.554)"/><path class="d" d="M1728.951,980.321c.3-2.723.479-3.711.479-4.16,0-.848-2.37-3.312-3.687-4.539" transform="translate(-1701.255 -899.402)"/><path class="d" d="M1682.457,955.3c-3.282,1.158-9.652,3.736-12.516,4.759" transform="translate(-1669.941 -890.241)"/><path class="d" d="M1783.625,955.3c3.282,1.158,9.662,3.736,12.52,4.759" transform="translate(-1733.737 -890.241)"/><line class="d" x2="4.066" transform="translate(29.261 64.414)"/><g transform="translate(10.122 26.092)"><path class="d" d="M1696.6,867.769c-1.471-2.933-3.6-.379-3.6,3.752,0,3.451.993,9.577,2.224,9.886a5.178,5.178,0,0,1,2.689,2.11" transform="translate(-1693.006 -866.505)"/><path class="d" d="M1717.274,929.688c3.023,4.175,6.769,5.093,10.441,5.093" transform="translate(-1706.625 -901.961)"/></g><path class="d" d="M1697.418,834.4c1.616,3.193,1.616,3.193,1.616-.778s.743-6.619,5.771-6.619,7.093,3.906,14.9,3.906,10.915-3.212,10.915-3.212v7c0,2.893.15,2.893,1.765-.3.649-1.287,1.417-1.516,2.08-1.022a29.489,29.489,0,0,0,.878-7.877c0-7.053-3.8-17.339-11.264-14.585-1.5-3.218-5.692-3.871-9.174-3.871-11.293,0-20.452,8.261-20.452,18.456a29.056,29.056,0,0,0,.888,7.871C1696.006,832.887,1696.775,833.117,1697.418,834.4Z" transform="translate(-1683.7 -807.048)"/><path class="d" d="M1756.072,881.207a11.281,11.281,0,0,1-5.492,2.883c.539.678,2.38,1.252,3.816,1.517" transform="translate(-1715.193 -848.664)"/><path class="d" d="M1719.014,881.207a11.239,11.239,0,0,0,5.487,2.883c-.539.678-2.375,1.252-3.821,1.517" transform="translate(-1697.479 -848.664)"/><g transform="translate(0.525 45.6)"><path class="d" d="M1678.135,911.142a6.179,6.179,0,1,0-2.584,12.022c.04.065.075.125.115.18a4.181,4.181,0,0,0,5.846.918,4.074,4.074,0,0,0,1.067-1.147" transform="translate(-1671.138 -910.96)"/><line class="d" x1="11.154" y2="5.986" transform="translate(9.586 3.455)"/><line class="d" x1="12.376" y2="2.729" transform="translate(7.356 0.731)"/></g><g transform="translate(31.212 26.092)"><path class="d" d="M1779.23,867.769c1.472-2.933,3.607-.379,3.607,3.752,0,3.451-1,9.577-2.23,9.886a5.144,5.144,0,0,0-2.689,2.11" transform="translate(-1761.746 -866.505)"/><path class="d" d="M1751.5,929.688c-3.028,4.175-6.769,5.093-10.435,5.093" transform="translate(-1741.066 -901.961)"/></g><g transform="translate(41.148 45.6)"><path class="d" d="M1789.349,911.142a6.18,6.18,0,1,1,2.589,12.022,1.574,1.574,0,0,1-.12.18,4.175,4.175,0,0,1-5.841.918,4.08,4.08,0,0,1-1.068-1.147" transform="translate(-1775.606 -910.96)"/><line class="d" x2="11.159" y2="5.986" transform="translate(0 3.455)"/><line class="d" x2="12.371" y2="2.729" transform="translate(1.013 0.731)"/></g></g></g></svg>