<svg xmlns="http://www.w3.org/2000/svg" width="122.873" height="121.096" viewBox="0 0 122.873 121.096"><defs><style>.a{fill:#fff;}.b{fill:#47545e;}.c{fill:#de0000;}.d{fill:none;}</style></defs><g transform="translate(0 0)"><rect class="a" width="121.094" height="121.096" rx="60.547" transform="translate(0 0)"/><g transform="translate(21.624 19.894)"><g transform="translate(0 0)"><path class="b" d="M2115.78,570.833c-2.812,0-6.062-1.984-9.459-4.056l-.2-.121a55,55,0,0,1-6.519-4.562.779.779,0,1,1,1.008-1.189,56.372,56.372,0,0,0,6.327,4.42l.192.118c3.938,2.4,7.649,4.666,10.137,3.52,2.541-1.182,2.831-2.819,2.472-5.069-.191-1.2-.211-1.8.167-2.217a1.164,1.164,0,0,1,1-.329.527.527,0,0,0,.364-.049.651.651,0,0,0,.315-.617c-.049-.347-.423-.647-1.032-.829a5.763,5.763,0,0,0-2.331-.189.78.78,0,0,1-.958-.548.791.791,0,0,1,.546-.964,7.288,7.288,0,0,1,3.186.2,2.637,2.637,0,0,1,2.143,2.126,2.218,2.218,0,0,1-1.062,2.153,1.887,1.887,0,0,1-.894.275c.015.165.044.4.094.738.359,2.239.3,5.034-3.353,6.73A5.063,5.063,0,0,1,2115.78,570.833Z" transform="translate(-2069.816 -509.834)"/><path class="b" d="M2149.11,519.211a6.428,6.428,0,0,1-1.376-.2.78.78,0,0,1,.339-1.524c1.3.285,1.4.123,1.494-.03.182-.3.162-.482.074-.944a3.814,3.814,0,0,1-.024-1.622c.379-1.73,1.475-1.718,2.537-1.708l.349,0c1.17,0,2.7-.521,3.028-1.271.246-.568-.265-1.3-.747-1.814-3.309-3.569-4.238-6.187-4.439-6.9a1.588,1.588,0,0,1,.506-1.73,1.66,1.66,0,0,0,.561-1.1c.285-1.76-.413-3.019-1.716-4.6a.818.818,0,0,1-.177-.45c-.177-2.918-.919-6.71-1.941-7.984a.782.782,0,1,1,1.219-.981c1.436,1.792,2.094,6.143,2.271,8.615a6.845,6.845,0,0,1,1.888,5.641,3.174,3.174,0,0,1-1,1.962c-.045.042-.093.1-.128.132a.291.291,0,0,1,.015.067c.133.447.934,2.866,4.09,6.271,1.44,1.546,1.357,2.755,1.032,3.5-.708,1.62-3.058,2.212-4.464,2.212l-.364,0a3.117,3.117,0,0,0-.836.049.981.981,0,0,0-.162.43,2.345,2.345,0,0,0,.039,1,2.614,2.614,0,0,1-.281,2.043A1.953,1.953,0,0,1,2149.11,519.211Z" transform="translate(-2096.941 -468.98)"/><path class="b" d="M2081.494,596.14a.78.78,0,0,1-.56-.236c-.182-.189-18.686-19.015-36.654-19.753a.779.779,0,0,1-.708-1.03c.88-2.578,2.605-6.135,2.679-6.29a.772.772,0,0,1,.767-.435,51.787,51.787,0,0,1,19.232,6.3,92.662,92.662,0,0,1,9.625,6.421.753.753,0,0,1,.276.423l2.615,10.169c1.932,1.723,3.107,2.92,3.289,3.109a.78.78,0,0,1-.56,1.325Zm-36.089-21.486c12.4.954,24.551,9.589,31.281,15.252l-1.981-7.721a93.034,93.034,0,0,0-9.232-6.138A51.546,51.546,0,0,0,2047.421,570C2047,570.9,2046.079,572.894,2045.405,574.654Z" transform="translate(-2038.15 -515.705)"/><path class="b" d="M2031.866,590.343a.8.8,0,0,1-.482-.167.784.784,0,0,1-.128-1.094,74.357,74.357,0,0,1,5.442-6.14.778.778,0,0,1,1.106,0,.787.787,0,0,1,0,1.108,70.927,70.927,0,0,0-5.319,5.995A.783.783,0,0,1,2031.866,590.343Z" transform="translate(-2031.09 -523.831)"/><path class="b" d="M2056.4,560.84a.489.489,0,0,1-.118-.01.775.775,0,0,1-.654-.89l.555-3.687a.778.778,0,0,1,.889-.654.79.79,0,0,1,.659.89l-.561,3.685A.783.783,0,0,1,2056.4,560.84Z" transform="translate(-2045.011 -508.439)"/><path class="b" d="M2046.287,495.313c-.6,0-1.19-.022-1.775-.064a.779.779,0,0,1-.654-1.1c1.676-3.749.481-6.126-1.17-9.412a27.73,27.73,0,0,1-3.294-18.025c1.544-12.541,9.7-15.884,14.286-15.884.079,0,.157,0,.226,0,1.927-2.173,6.287-4.265,12.074-4.265a28.544,28.544,0,0,1,14.847,4.476c10,6.145,12.408,4.127,12.413,4.12a.74.74,0,0,1,.841-.275.791.791,0,0,1,.541.745,9.878,9.878,0,0,1-5.816,8.947,12.158,12.158,0,0,1-4.926,1.035,13.318,13.318,0,0,1-5.157-1.06,29.551,29.551,0,0,1-1.1,4.993c-1.13,3.4-3.52,6.912-5.57,6.912h0c-.757,0-2.04-.452-2.109-3.449a3.693,3.693,0,0,0-3.781-3.854,3.979,3.979,0,0,0-3.47,3.4c-.507,2.682.177,5.034,1.607,8.433,1.274,3.026,1.377,5.582-2.025,8.991C2059.133,493.121,2052.561,495.313,2046.287,495.313Zm-.59-1.571c6,.145,12.551-1.947,15.476-4.867,3.1-3.1,2.625-5.049,1.691-7.276-1.264-2.991-2.34-5.956-1.706-9.331a5.52,5.52,0,0,1,4.877-4.673,5.239,5.239,0,0,1,5.467,5.376c.035,1.4.359,1.918.551,1.918.851,0,2.92-2.328,4.09-5.835a29.836,29.836,0,0,0,1.155-5.757.792.792,0,0,1,.428-.627.781.781,0,0,1,.757.027,11.474,11.474,0,0,0,5.4,1.352,10.581,10.581,0,0,0,4.3-.9,8.045,8.045,0,0,0,4.769-6.189,5.425,5.425,0,0,1-1.166.12c-2.733,0-6.686-1.583-11.769-4.7a27.016,27.016,0,0,0-14.03-4.247c-5.516,0-9.625,2.069-11.105,3.984a.779.779,0,0,1-.7.3c-.137-.012-.3-.025-.491-.025-1.121,0-11,.408-12.733,14.517a26.333,26.333,0,0,0,3.136,17.13C2045.653,487.152,2047.025,489.881,2045.7,493.742Z" transform="translate(-2035.64 -446.565)"/></g><g transform="translate(50.753 48.16)"><g transform="translate(8.273)"><path class="c" d="M2178.17,566.847a.785.785,0,0,1-.786-.782,1.374,1.374,0,0,0-.246-.838,3.125,3.125,0,0,1,0-3.225,1.561,1.561,0,0,0,0-1.681,2.977,2.977,0,0,1-.448-1.615.782.782,0,0,1,1.564,0,1.412,1.412,0,0,0,.246.841,3.141,3.141,0,0,1,0,3.23,1.553,1.553,0,0,0,0,1.676,2.927,2.927,0,0,1,.447,1.612A.777.777,0,0,1,2178.17,566.847Z" transform="translate(-2172.747 -557.924)"/><path class="c" d="M2187.288,568.947a.783.783,0,0,1-.787-.781,1.376,1.376,0,0,0-.246-.838,3.141,3.141,0,0,1,0-3.23,1.358,1.358,0,0,0,.246-.836,1.384,1.384,0,0,0-.246-.841,2.969,2.969,0,0,1-.447-1.615.781.781,0,0,1,1.563,0,1.408,1.408,0,0,0,.246.843,3.126,3.126,0,0,1,0,3.222,1.566,1.566,0,0,0,0,1.684,2.911,2.911,0,0,1,.447,1.61A.777.777,0,0,1,2187.288,568.947Z" transform="translate(-2177.922 -559.117)"/><path class="c" d="M2169.054,568.947a.782.782,0,0,1-.782-.781,1.376,1.376,0,0,0-.246-.838,3.109,3.109,0,0,1,0-3.23,1.358,1.358,0,0,0,.246-.836,1.414,1.414,0,0,0-.246-.841,2.961,2.961,0,0,1-.452-1.615.784.784,0,0,1,1.568,0,1.383,1.383,0,0,0,.246.843,3.1,3.1,0,0,1,0,3.222,1.564,1.564,0,0,0,0,1.684,2.951,2.951,0,0,1,.452,1.61A.783.783,0,0,1,2169.054,568.947Z" transform="translate(-2167.574 -559.117)"/></g><g transform="translate(0 10.356)"><path class="b" d="M2172.69,601.551h-12.226a.784.784,0,0,1-.767-.627l-3.382-16.545a2.038,2.038,0,0,1,2.045-2.51H2174.8a2.106,2.106,0,0,1,1.647.755,2.078,2.078,0,0,1,.4,1.76l-3.392,16.54A.775.775,0,0,1,2172.69,601.551Zm-11.587-1.568h10.953l3.255-15.916a.544.544,0,0,0-.079-.459.551.551,0,0,0-.433-.175H2158.36a.545.545,0,0,0-.433.175.529.529,0,0,0-.083.459Z" transform="translate(-2152.884 -581.869)"/><path class="b" d="M2197.4,601.888H2194.9a.78.78,0,1,1,0-1.561h2.492a1.111,1.111,0,0,0,1-.819l1.76-8.589a.445.445,0,0,0-.064-.373.44.44,0,0,0-.349-.135h-2.493a.784.784,0,1,1,0-1.568h2.493a1.942,1.942,0,0,1,1.942,2.389l-1.76,8.59A2.652,2.652,0,0,1,2197.4,601.888Z" transform="translate(-2174.365 -585.827)"/><path class="b" d="M2172.936,628.439h-21.591a2.662,2.662,0,0,1-2.537-2.069l-.349-1.676a.8.8,0,0,1,.162-.654.776.776,0,0,1,.6-.287h25.829a.779.779,0,0,1,.762.942l-.344,1.681A2.659,2.659,0,0,1,2172.936,628.439Zm-22.751-3.122.152.74a1.118,1.118,0,0,0,1.008.821h21.591a1.1,1.1,0,0,0,1-.816l.157-.745Z" transform="translate(-2148.444 -605.638)"/></g></g></g><g transform="translate(46.286 38.41)"><path class="d" d="M2101.133,562.524a55.83,55.83,0,0,0,6.42,4.488c4.179,2.549,8.161,5.027,11.071,3.68s3.319-3.375,2.916-5.9.216-1.229,1.166-1.8,1.165-2.254-.9-2.861a6.453,6.453,0,0,0-2.759-.2" transform="translate(-2071.617 -511.64)"/><path class="d" d="M2149.213,487.874c1.229,1.536,1.946,5.639,2.114,8.424,1.249,1.516,2.237,3.028,1.883,5.218-.275,1.75-1.386,1.457-1.086,2.5a18.081,18.081,0,0,0,4.262,6.588c2.788,3-.8,4.4-2.856,4.4-1.288,0-1.849-.138-2.125,1.091-.26,1.2.473,1.79-.147,2.8-.4.661-1.062.666-2.325.388" transform="translate(-2098.745 -470.79)"/><path class="d" d="M2082.517,596.384s-18.686-19.229-37.185-19.987c.875-2.556,2.645-6.2,2.645-6.2a51.319,51.319,0,0,1,18.907,6.2,90.9,90.9,0,0,1,9.532,6.359l2.655,10.334" transform="translate(-2039.949 -517.512)"/><path class="d" d="M2038.268,584.529a74.31,74.31,0,0,0-5.383,6.064" transform="translate(-2032.885 -525.644)"/><line class="d" x1="0.555" y2="3.687" transform="translate(10.614 47.153)"/><path class="d" d="M2045.6,495.5c3.909-8.719-6.479-10.741-4.395-27.663,1.75-14.229,11.784-15.427,14.084-15.174,2.979-3.859,14.085-7.352,26.168.076,11.277,6.927,13.421,3.948,13.421,3.948a9,9,0,0,1-5.354,8.2,12.047,12.047,0,0,1-10.417-.49,30.523,30.523,0,0,1-1.19,5.929c-1.779,5.346-6.027,9.2-6.165,3.689a4.447,4.447,0,0,0-4.621-4.616,4.752,4.752,0,0,0-4.174,4.041c-.565,3,.29,5.639,1.656,8.884,1.072,2.549,1.446,4.828-1.858,8.128C2059.529,493.676,2052.116,495.96,2045.6,495.5Z" transform="translate(-2037.447 -448.372)"/><path class="d" d="M2142.3,523.169a18.674,18.674,0,0,1-3.9.806l1.9,1.854" transform="translate(-2092.764 -490.821)"/><g transform="translate(50.758 48.161)"><g transform="translate(8.274)"><path class="d" d="M2179.2,567.09c0-1.227-.7-1.227-.7-2.45s.7-1.226.7-2.453-.7-1.229-.7-2.456" transform="translate(-2174.555 -559.731)"/><path class="d" d="M2188.312,569.188c0-1.227-.7-1.227-.7-2.453s.7-1.227.7-2.45-.7-1.227-.7-2.456" transform="translate(-2179.729 -560.922)"/><path class="d" d="M2170.08,569.188c0-1.227-.7-1.227-.7-2.453s.7-1.227.7-2.45-.7-1.227-.7-2.456" transform="translate(-2169.382 -560.922)"/></g><g transform="translate(0 10.356)"><path class="d" d="M2177.1,585.253l-3.387,16.54h-12.226l-3.387-16.54a1.264,1.264,0,0,1,1.283-1.576h16.439A1.257,1.257,0,0,1,2177.1,585.253Z" transform="translate(-2154.688 -583.677)"/><path class="d" d="M2198.286,590.656h2.492a1.161,1.161,0,0,1,1.18,1.448l-1.76,8.588a1.886,1.886,0,0,1-1.77,1.445h-2.492" transform="translate(-2176.178 -587.638)"/><path class="d" d="M2176.08,625.553l-.349,1.684a1.882,1.882,0,0,1-1.77,1.445H2152.37a1.882,1.882,0,0,1-1.77-1.445l-.349-1.684Z" transform="translate(-2150.251 -607.442)"/></g></g></g></g></svg>