<svg xmlns="http://www.w3.org/2000/svg" width="70" height="70" viewBox="0 0 70 70"><defs><style>.a{fill:#eee;}.b{fill:#3e3935;}</style></defs><circle class="a" cx="35" cy="35" r="35"/><g transform="translate(23 13)"><path class="b" d="M1563.929,350.036c-.033,1.316-.49,1.994-1.429,1.97-1.065-.027-1.607-.919-1.561-2.736.135-5.326,4.586-7.783,8.223-10.261a9.829,9.829,0,0,0,4.527-7.91c.116-4.574-3.616-8.179-8.879-8.313a11.084,11.084,0,0,0-8.874,3.787,1.291,1.291,0,0,1-1.076.411,1.375,1.375,0,0,1-1.054-.466,1.275,1.275,0,0,1-.352-.949,1.758,1.758,0,0,1,.469-1.179,14.394,14.394,0,0,1,11.22-4.856c3.822.1,6.8,1.176,8.944,3.3a9.964,9.964,0,0,1,3.065,7.664c-.172,6.767-4.885,9.656-8.521,12.134-2.552,1.753-4.619,4.146-4.7,7.216Zm-1.556,9.427a2.343,2.343,0,0,1,2.261,2.314,2.385,2.385,0,1,1-4.762-.121A2.333,2.333,0,0,1,1562.374,359.463Z" transform="translate(-1553.453 -319.53)"/></g></svg>