<svg xmlns="http://www.w3.org/2000/svg" width="123" height="123" viewBox="0 0 123 123"><defs><style>.a{fill:#fff;}.b{fill:#47545e;}.c{fill:#de0000;}</style></defs><g transform="translate(0 0.48)"><rect class="a" width="123" height="123" rx="61.5" transform="translate(0 -0.48)"/><g transform="translate(26.769 14.92)"><g transform="translate(0)"><path class="b" d="M2475.719,211.309c-2.858,0-6.166-2.023-9.622-4.13l-.175-.107a55.994,55.994,0,0,1-6.619-4.632.8.8,0,0,1-.09-1.117.792.792,0,0,1,1.118-.09,56.318,56.318,0,0,0,6.42,4.487l.175.1c4,2.442,7.781,4.754,10.306,3.579,2.584-1.195,2.873-2.848,2.509-5.138-.195-1.215-.215-1.828.169-2.25a1.175,1.175,0,0,1,1.018-.332.558.558,0,0,0,.374-.052.655.655,0,0,0,.315-.626c-.045-.349-.425-.656-1.048-.836a5.846,5.846,0,0,0-2.369-.192.793.793,0,0,1-.419-1.529,7.3,7.3,0,0,1,3.238.2,2.662,2.662,0,0,1,2.17,2.155,2.252,2.252,0,0,1-1.068,2.185,1.933,1.933,0,0,1-.913.282c.015.169.045.414.095.746.369,2.274.309,5.108-3.407,6.832A5.163,5.163,0,0,1,2475.719,211.309Z" transform="translate(-2420.757 -137.932)"/><path class="b" d="M2508.833,159.983a6.506,6.506,0,0,1-1.392-.2.792.792,0,1,1,.34-1.546c1.317.289,1.416.122,1.511-.03.184-.309.165-.487.08-.96a3.848,3.848,0,0,1-.025-1.644c.379-1.758,1.506-1.743,2.573-1.731h.354c1.187,0,2.743-.531,3.078-1.292.25-.571-.274-1.317-.763-1.838-3.357-3.627-4.3-6.278-4.5-7a1.6,1.6,0,0,1,.514-1.756,1.76,1.76,0,0,0,.574-1.125c.284-1.791-.424-3.063-1.746-4.66a.77.77,0,0,1-.179-.454c-.18-2.97-.938-6.814-1.971-8.106a.793.793,0,1,1,1.232-1c1.462,1.818,2.125,6.233,2.305,8.744a6.93,6.93,0,0,1,1.92,5.722,3.272,3.272,0,0,1-1.013,2c-.044.045-.1.1-.129.134,0,.013.01.033.015.062.134.459.948,2.908,4.145,6.365,1.466,1.574,1.376,2.8,1.052,3.547-.713,1.646-3.1,2.242-4.53,2.242h-.374a3.046,3.046,0,0,0-.848.05.957.957,0,0,0-.16.436,2.4,2.4,0,0,0,.039,1.018,2.637,2.637,0,0,1-.289,2.073A1.959,1.959,0,0,1,2508.833,159.983Z" transform="translate(-2447.576 -97.533)"/><path class="b" d="M2441.744,236.831a.8.8,0,0,1-.568-.242c-.185-.192-18.966-19.29-37.193-20.041a.793.793,0,0,1-.718-1.05c.888-2.609,2.644-6.226,2.713-6.375a.778.778,0,0,1,.784-.444,52.6,52.6,0,0,1,19.519,6.387,95.273,95.273,0,0,1,9.762,6.517.825.825,0,0,1,.279.427l2.649,10.318c1.965,1.751,3.157,2.966,3.342,3.158a.792.792,0,0,1-.569,1.344Zm-36.624-21.8c12.591.97,24.916,9.732,31.745,15.479l-2.01-7.834a94.069,94.069,0,0,0-9.373-6.225,52.184,52.184,0,0,0-18.307-6.136C2406.741,211.224,2405.809,213.242,2405.12,215.027Z" transform="translate(-2389.441 -143.733)"/><path class="b" d="M2391.561,230.743a.792.792,0,0,1-.624-1.285,76.722,76.722,0,0,1,5.527-6.223.791.791,0,1,1,1.118,1.12,75.762,75.762,0,0,0-5.4,6.088A.792.792,0,0,1,2391.561,230.743Z" transform="translate(-2382.452 -151.774)"/><path class="b" d="M2416.1,201.2a.982.982,0,0,1-.119-.007.8.8,0,0,1-.669-.905l.569-3.739a.8.8,0,0,1,.9-.666.786.786,0,0,1,.663.9l-.564,3.741A.793.793,0,0,1,2416.1,201.2Z" transform="translate(-2396.221 -136.55)"/><path class="b" d="M2406.081,136.318c-.6,0-1.2-.02-1.8-.065a.794.794,0,0,1-.624-.384.784.784,0,0,1-.045-.728c1.706-3.811.5-6.22-1.182-9.555a28.152,28.152,0,0,1-3.347-18.284c1.567-12.73,9.852-16.127,14.5-16.127l.234,0c1.956-2.2,6.375-4.32,12.242-4.32a29.013,29.013,0,0,1,15.074,4.54c10.146,6.233,12.581,4.185,12.591,4.178a.759.759,0,0,1,.858-.274.807.807,0,0,1,.549.748,10.035,10.035,0,0,1-5.906,9.083,12.343,12.343,0,0,1-5,1.053,13.537,13.537,0,0,1-5.232-1.078,29.871,29.871,0,0,1-1.117,5.063c-1.147,3.45-3.577,7.011-5.652,7.011h0c-.768,0-2.07-.454-2.145-3.494a3.736,3.736,0,0,0-3.831-3.911,4.031,4.031,0,0,0-3.522,3.454c-.514,2.716.179,5.1,1.631,8.558,1.292,3.067,1.4,5.667-2.055,9.121C2419.12,134.093,2412.451,136.318,2406.081,136.318Zm-.6-1.594c6.056.145,12.735-1.975,15.7-4.936,3.147-3.147,2.668-5.125,1.716-7.385-1.282-3.043-2.374-6.051-1.726-9.47a5.6,5.6,0,0,1,4.949-4.739,5.323,5.323,0,0,1,5.547,5.457c.035,1.417.359,1.943.559,1.943.868,0,2.963-2.36,4.145-5.923a30.438,30.438,0,0,0,1.178-5.839.794.794,0,0,1,1.2-.609,11.763,11.763,0,0,0,5.482,1.372,10.784,10.784,0,0,0,4.36-.918,8.138,8.138,0,0,0,4.839-6.283,5.354,5.354,0,0,1-1.187.122c-2.764,0-6.779-1.6-11.932-4.769a27.455,27.455,0,0,0-14.246-4.31c-5.6,0-9.762,2.095-11.264,4.046a.811.811,0,0,1-.718.3,4.486,4.486,0,0,0-.494-.02c-1.137,0-11.163.409-12.924,14.728a26.675,26.675,0,0,0,3.192,17.379C2405.438,128.037,2406.834,130.805,2405.483,134.724Z" transform="translate(-2386.955 -75.371)"/><path class="c" d="M2394.078,194.8a.792.792,0,0,1-.559-1.355l4.818-4.816a.793.793,0,0,1,1.118,1.125l-4.814,4.816A.8.8,0,0,1,2394.078,194.8Z" transform="translate(-2383.865 -132.352)"/><path class="c" d="M2372.615,161.542a.793.793,0,0,1-.2-1.559l6.574-1.763a.793.793,0,1,1,.409,1.532l-6.575,1.763A.678.678,0,0,1,2372.615,161.542Z" transform="translate(-2371.822 -115.403)"/><path class="c" d="M2379.2,122.648a.757.757,0,0,1-.21-.03l-6.58-1.758a.794.794,0,1,1,.41-1.534l6.579,1.763a.793.793,0,0,1-.2,1.559Z" transform="translate(-2371.818 -93.577)"/><path class="c" d="M2398.9,88.538a.793.793,0,0,1-.559-.232l-4.818-4.816a.793.793,0,0,1,1.122-1.12l4.814,4.816a.793.793,0,0,1,0,1.12A.778.778,0,0,1,2398.9,88.538Z" transform="translate(-2383.865 -72.723)"/><path class="c" d="M2432.992,68.855a.8.8,0,0,1-.763-.588l-1.756-6.585a.79.79,0,1,1,1.526-.406l1.766,6.582a.8.8,0,0,1-.563.97A.742.742,0,0,1,2432.992,68.855Z" transform="translate(-2404.718 -60.685)"/><path class="c" d="M2470.12,68.85a.786.786,0,0,1-.2-.025.8.8,0,0,1-.563-.972l1.765-6.577a.795.795,0,1,1,1.536.409l-1.766,6.579A.8.8,0,0,1,2470.12,68.85Z" transform="translate(-2426.536 -60.685)"/><path class="c" d="M2500.331,88.548a.792.792,0,0,1-.563-1.354l4.813-4.809a.793.793,0,0,1,1.123,1.12l-4.814,4.814A.807.807,0,0,1,2500.331,88.548Z" transform="translate(-2443.489 -72.731)"/></g></g></g></svg>