<svg xmlns="http://www.w3.org/2000/svg" width="123" height="123" viewBox="0 0 123 123"><defs><style>.a{fill:#fff;}.b{fill:#47545e;}.c{fill:#de0000;stroke:#de0000;}</style></defs><g transform="translate(0 0.115)"><rect class="a" width="123" height="123" rx="61.5" transform="translate(0 -0.115)"/><g transform="translate(22.219 20.186)"><g transform="translate(7.264)"><path class="b" d="M1747.42,1339.951a.789.789,0,0,1-.783-.708c-.145-1.307-.26-2.214-.339-2.848-.09-.748-.14-1.122-.14-1.4,0-1.257,2.395-3.671,3.821-5.008a.788.788,0,0,1,1.117.04.8.8,0,0,1-.035,1.127,15.226,15.226,0,0,0-3.317,3.871c.005.15.055.559.13,1.177.08.639.195,1.557.34,2.874a.789.789,0,0,1-.7.868C1747.48,1339.941,1747.45,1339.951,1747.42,1339.951Z" transform="translate(-1711.922 -1257.44)"/><path class="b" d="M1727.939,1339.808c-.03,0-.06-.01-.09-.01a.788.788,0,0,1-.7-.873c.145-1.292.255-2.19.334-2.838s.134-1.047.134-1.237a17.022,17.022,0,0,0-3.426-3.961.791.791,0,0,1,1.077-1.157c1.187,1.1,3.935,3.811,3.935,5.118a13.9,13.9,0,0,1-.145,1.437c-.079.638-.194,1.536-.333,2.813A.789.789,0,0,1,1727.939,1339.808Z" transform="translate(-1699.449 -1257.297)"/><path class="b" d="M1739.673,1313.309h-4.066a.791.791,0,1,1,0-1.581h4.066a.791.791,0,1,1,0,1.581Z" transform="translate(-1705.556 -1247.314)"/><path class="b" d="M1704.845,1297.709a5.4,5.4,0,0,0,1.447,3.132c2.853,3.043,8.286,3.043,8.286,3.043s-3.2,1-3.632,3.511a8.033,8.033,0,0,1-2.15,4.509,23.349,23.349,0,0,0-4.28-4.09,4.138,4.138,0,0,1-1.476-5.083l1.805-5.023m0-1.577a1.589,1.589,0,0,0-1.491,1.037l-1.771,4.939a5.752,5.752,0,0,0,1.935,6.934,23.324,23.324,0,0,1,3.966,3.761,1.619,1.619,0,0,0,1.123.668,1.271,1.271,0,0,0,.194.015,1.585,1.585,0,0,0,1.048-.389,9.516,9.516,0,0,0,2.668-5.432c.254-1.487,2.519-2.255,2.539-2.265a1.588,1.588,0,0,0-.474-3.1c-.045,0-4.789-.05-7.128-2.539a3.806,3.806,0,0,1-1.023-2.15,1.6,1.6,0,0,0-1.372-1.467,1.493,1.493,0,0,0-.215-.01Z" transform="translate(-1686.641 -1238.562)"/><path class="b" d="M1757.992,1297.7l1.816,5.023a4.137,4.137,0,0,1-1.481,5.083,23.366,23.366,0,0,0-4.28,4.09,8.067,8.067,0,0,1-2.149-4.51c-.434-2.514-3.622-3.511-3.622-3.511s5.422,0,8.27-3.043a5.356,5.356,0,0,0,1.447-3.132m0-1.587a1.323,1.323,0,0,0-.245.02,1.574,1.574,0,0,0-1.342,1.476,3.863,3.863,0,0,1-1.018,2.14c-2.319,2.469-7.073,2.539-7.118,2.539a1.587,1.587,0,0,0-.474,3.1c.015,0,2.275.778,2.529,2.265a9.548,9.548,0,0,0,2.669,5.432,1.588,1.588,0,0,0,1.047.394,1.487,1.487,0,0,0,.215-.01,1.586,1.586,0,0,0,1.117-.7h0a24.3,24.3,0,0,1,3.951-3.736,5.755,5.755,0,0,0,1.941-6.934l-1.786-4.938a1.578,1.578,0,0,0-1.487-1.047Z" transform="translate(-1712.217 -1238.549)"/><path class="b" d="M1729.865,1196.315c-1.057,0-1.057-1.162-1.057-2.923v-5.422c-1.646,1.023-4.874,2.429-10.116,2.429a20.046,20.046,0,0,1-9.522-2.354,12.064,12.064,0,0,0-5.388-1.557c-4.229,0-4.973,1.876-4.973,5.826,0,1.068,0,1.836-.029,2.364-.03.454-.09,1.507-1,1.507-.7,0-.938-.469-2.09-2.734-.324-.659-.609-.828-.708-.828a.308.308,0,0,0-.18.08.8.8,0,0,1-1.237-.419,29.481,29.481,0,0,1-.918-8.086c0-10.62,9.532-19.255,21.25-19.255,4.834,0,8.041,1.242,9.552,3.706a7.638,7.638,0,0,1,2.025-.289c6.585,0,9.652,9.448,9.652,15.837a29.522,29.522,0,0,1-.913,8.086.787.787,0,0,1-1.237.419.336.336,0,0,0-.18-.08c-.12,0-.409.22-.714.823C1730.952,1195.676,1730.593,1196.315,1729.865,1196.315Zm-.259-10.72a.723.723,0,0,1,.3.064.788.788,0,0,1,.489.729v6.864c.11-.2.2-.379.269-.519.748-1.486,1.617-1.731,2.23-1.7a30.174,30.174,0,0,0,.644-6.839c0-5.971-2.8-14.251-8.066-14.251a6.12,6.12,0,0,0-2.135.409.8.8,0,0,1-.993-.409c-1.052-2.275-3.9-3.422-8.45-3.422-10.84,0-19.664,7.922-19.664,17.673a30.087,30.087,0,0,0,.648,6.839c.609-.035,1.487.219,2.23,1.7.035.08.075.15.115.229v-.648c0-3.592.5-7.412,6.559-7.412a13.509,13.509,0,0,1,6.061,1.706,18.73,18.73,0,0,0,8.849,2.2c7.318,0,10.316-2.943,10.346-2.973A.8.8,0,0,1,1729.605,1185.595Z" transform="translate(-1681.89 -1164.943)"/><path class="b" d="M1668.936,1318.734a.792.792,0,0,1-.269-1.537c1.487-.534,3.811-1.432,6.271-2.394,2.893-1.117,5.881-2.285,7.9-2.993a.8.8,0,0,1,1.013.489.791.791,0,0,1-.489,1.008c-1.99.7-4.963,1.861-7.846,2.978-2.469.963-4.8,1.866-6.305,2.4A.741.741,0,0,1,1668.936,1318.734Z" transform="translate(-1668.141 -1247.336)"/><path class="b" d="M1792.867,1318.674a.86.86,0,0,1-.269-.045c-1.527-.544-3.906-1.467-6.42-2.449-2.888-1.118-5.871-2.275-7.866-2.978a.794.794,0,0,1,.528-1.5c2.016.714,5.008,1.876,7.912,3,2.5.978,4.873,1.9,6.385,2.434a.792.792,0,0,1-.269,1.537Z" transform="translate(-1729.668 -1247.276)"/><g transform="translate(10.113 20.652)"><path class="b" d="M1713.071,1251.85c-4.375,0-9.862-1.123-13.513-9.852-2.09-5.028-3.906-7.681-5.547-8.091-2.295-.578-2.823-9.348-2.823-10.65,0-3.037,1.058-5.4,2.574-5.761.559-.14,1.646-.1,2.529,1.646a.794.794,0,1,1-1.417.718c-.329-.659-.614-.853-.748-.828-.484.12-1.352,1.627-1.352,4.225,0,3.7,1.022,8.615,1.716,9.154,2.13.519,4.17,3.3,6.535,8.974,3.272,7.827,7.921,8.875,12.047,8.875s8.764-1.048,12.032-8.875c2.349-5.622,4.374-8.4,6.569-8.994.688-.649,1.686-5.487,1.686-9.134,0-2.6-.868-4.105-1.352-4.22-.135-.03-.454.23-.753.823-1.083,2.155-1.526,3.052-2.409,2.844-.853-.2-.853-1.163-.853-2.9v-7a.8.8,0,0,1,.8-.793.788.788,0,0,1,.788.793v6.859c.1-.194.189-.374.259-.509.883-1.75,1.97-1.79,2.539-1.651,1.511.359,2.568,2.724,2.568,5.761,0,1.3-.523,10.072-2.818,10.65-1.642.409-3.457,3.058-5.558,8.091C1722.922,1250.728,1717.44,1251.85,1713.071,1251.85Z" transform="translate(-1691.187 -1212.004)"/></g></g><path class="c" d="M.062,16.643,1.926,14.78a.02.02,0,0,0,0-.029L.163,12.99a.442.442,0,0,1,0-.625L1.926,10.6a.02.02,0,0,0,0-.029L.163,8.814a.442.442,0,0,1,0-.625L1.926,6.428a.02.02,0,0,0,0-.029L.163,4.638a.442.442,0,0,1,0-.625L1.926,2.252a.02.02,0,0,0,0-.029L.062.36a.211.211,0,0,1,.3-.3L2.223,1.925a.442.442,0,0,1,0,.625L.461,4.311a.02.02,0,0,0,0,.029L2.223,6.1a.442.442,0,0,1,0,.625L.461,8.487a.02.02,0,0,0,0,.029l1.762,1.761a.442.442,0,0,1,0,.625L.461,12.663a.02.02,0,0,0,0,.029l1.762,1.761a.442.442,0,0,1,0,.625L.361,16.941a.211.211,0,0,1-.3-.3Z" transform="translate(61.437 60.823) rotate(-65)"/><path class="c" d="M.062.36,1.926,2.223a.02.02,0,0,1,0,.029L.164,4.013a.442.442,0,0,0,0,.625L1.926,6.4a.02.02,0,0,1,0,.029L.164,8.189a.442.442,0,0,0,0,.625l1.762,1.761a.02.02,0,0,1,0,.029L.163,12.365a.442.442,0,0,0,0,.625l1.762,1.761a.02.02,0,0,1,0,.029L.062,16.643a.211.211,0,0,0,.3.3l1.863-1.863a.442.442,0,0,0,0-.625L.461,12.692a.02.02,0,0,1,0-.029L2.223,10.9a.442.442,0,0,0,0-.625L.461,8.516a.02.02,0,0,1,0-.029L2.223,6.726a.442.442,0,0,0,0-.625L.461,4.34a.02.02,0,0,1,0-.029L2.224,2.55a.442.442,0,0,0,0-.625L.361.062a.211.211,0,0,0-.3.3Z" transform="translate(0.994 68.009) rotate(-115)"/><path class="c" d="M.062.36,1.926,2.223a.02.02,0,0,1,0,.029L.164,4.013a.442.442,0,0,0,0,.625L1.926,6.4a.02.02,0,0,1,0,.029L.164,8.189a.442.442,0,0,0,0,.625l1.762,1.761a.02.02,0,0,1,0,.029L.163,12.365a.442.442,0,0,0,0,.625l1.762,1.761a.02.02,0,0,1,0,.029L.062,16.643a.211.211,0,0,0,.3.3l1.863-1.863a.442.442,0,0,0,0-.625L.461,12.692a.02.02,0,0,1,0-.029L2.223,10.9a.442.442,0,0,0,0-.625L.461,8.516a.02.02,0,0,1,0-.029L2.223,6.726a.442.442,0,0,0,0-.625L.461,4.34a.02.02,0,0,1,0-.029L2.224,2.55a.442.442,0,0,0,0-.625L.361.062a.211.211,0,0,0-.3.3Z" transform="matrix(-0.819, 0.574, -0.574, -0.819, 22.244, 52.199)"/><path class="c" d="M.062,16.643,1.926,14.78a.02.02,0,0,0,0-.029L.164,12.99a.442.442,0,0,1,0-.625L1.926,10.6a.02.02,0,0,0,0-.029L.164,8.814a.442.442,0,0,1,0-.625L1.926,6.428a.02.02,0,0,0,0-.029L.163,4.638a.442.442,0,0,1,0-.625L1.926,2.252a.02.02,0,0,0,0-.029L.062.36a.211.211,0,0,1,.3-.3L2.223,1.925a.442.442,0,0,1,0,.625L.461,4.311a.02.02,0,0,0,0,.029L2.223,6.1a.442.442,0,0,1,0,.625L.461,8.487a.02.02,0,0,0,0,.029l1.762,1.761a.442.442,0,0,1,0,.625L.461,12.663a.02.02,0,0,0,0,.029l1.762,1.761a.442.442,0,0,1,0,.625L.361,16.941a.211.211,0,0,1-.3-.3Z" transform="matrix(0.819, 0.574, -0.574, 0.819, 65.626, 38.271)"/></g></g></svg>