<svg xmlns="http://www.w3.org/2000/svg" width="122.873" height="122.873" viewBox="0 0 122.873 122.873"><defs><style>.a{fill:#fff;}.b,.e{fill:#47545e;}.c{fill:#de0000;}.d{fill:none;}.e{font-size:8px;font-family:Roboto-Bold, Roboto;font-weight:700;}</style></defs><g transform="translate(0 0)"><rect class="a" width="122.873" height="122.873" rx="61.436" transform="translate(0 0)"/><g transform="translate(27.888 20.554)"><g transform="translate(0 0.097)"><path class="b" d="M1036.949,211.308c-2.858,0-6.161-2.018-9.612-4.123l-.182-.112a55.4,55.4,0,0,1-6.62-4.634.793.793,0,1,1,1.028-1.207,55.384,55.384,0,0,0,6.417,4.489l.182.11c4,2.439,7.772,4.746,10.3,3.574,2.582-1.19,2.874-2.851,2.512-5.138-.2-1.217-.217-1.828.167-2.247a1.177,1.177,0,0,1,1.018-.334.571.571,0,0,0,.369-.05.668.668,0,0,0,.32-.628c-.045-.349-.427-.653-1.045-.838a5.927,5.927,0,0,0-2.362-.192.8.8,0,0,1-.978-.552.789.789,0,0,1,.554-.975,7.2,7.2,0,0,1,3.232.2,2.668,2.668,0,0,1,2.17,2.157,2.262,2.262,0,0,1-1.072,2.188,1.939,1.939,0,0,1-.906.277c.015.172.045.414.1.746.359,2.28.3,5.108-3.409,6.832A5.106,5.106,0,0,1,1036.949,211.308Z" transform="translate(-990.305 -149.416)"/><path class="b" d="M1070.061,159.986a6.624,6.624,0,0,1-1.387-.2.793.793,0,0,1,.342-1.549c1.314.289,1.417.125,1.514-.032.185-.3.162-.481.075-.953a3.876,3.876,0,0,1-.025-1.651c.385-1.756,1.5-1.741,2.574-1.731l.359,0c1.182,0,2.741-.531,3.073-1.289.249-.576-.274-1.317-.758-1.838-3.357-3.627-4.3-6.275-4.509-7.006a1.6,1.6,0,0,1,.513-1.756,1.723,1.723,0,0,0,.574-1.12c.284-1.791-.425-3.063-1.744-4.662a.784.784,0,0,1-.182-.456c-.182-2.966-.935-6.812-1.97-8.111a.793.793,0,0,1,1.24-.988c1.454,1.821,2.117,6.231,2.3,8.745a6.931,6.931,0,0,1,1.92,5.721,3.253,3.253,0,0,1-1.012,1.993c-.04.043-.095.1-.13.135.005.01.01.032.02.065.13.454.943,2.908,4.145,6.363,1.462,1.571,1.377,2.8,1.047,3.549-.718,1.643-3.1,2.24-4.524,2.24l-.374,0a3.3,3.3,0,0,0-.853.05,1.049,1.049,0,0,0-.154.436,2.333,2.333,0,0,0,.035,1.022,2.619,2.619,0,0,1-.284,2.068A1.982,1.982,0,0,1,1070.061,159.986Z" transform="translate(-1017.127 -109.018)"/><path class="b" d="M1002.979,236.836a.8.8,0,0,1-.571-.237c-.184-.195-18.965-19.3-37.192-20.045a.8.8,0,0,1-.718-1.05c.893-2.609,2.644-6.225,2.719-6.378a.8.8,0,0,1,.781-.444,52.508,52.508,0,0,1,19.517,6.392,94.349,94.349,0,0,1,9.762,6.515.764.764,0,0,1,.279.427l2.654,10.321c1.96,1.746,3.152,2.963,3.339,3.153a.793.793,0,0,1-.569,1.347Zm-36.621-21.806c12.585.973,24.912,9.737,31.743,15.481l-2.013-7.837a94.035,94.035,0,0,0-9.368-6.225,52.2,52.2,0,0,0-18.312-6.133C967.977,211.228,967.041,213.244,966.358,215.029Z" transform="translate(-958.991 -155.219)"/><path class="b" d="M952.8,230.749a.8.8,0,0,1-.624-1.29,78.01,78.01,0,0,1,5.527-6.22.793.793,0,0,1,1.123,1.12,75.815,75.815,0,0,0-5.4,6.086A.789.789,0,0,1,952.8,230.749Z" transform="translate(-952.004 -163.26)"/><path class="b" d="M977.329,201.209a1,1,0,0,1-.12-.007.8.8,0,0,1-.666-.905l.569-3.737a.795.795,0,0,1,1.571.24l-.569,3.736A.8.8,0,0,1,977.329,201.209Z" transform="translate(-965.77 -148.041)"/><path class="b" d="M967.315,136.318q-.909,0-1.8-.06a.808.808,0,0,1-.624-.384.8.8,0,0,1-.045-.733c1.708-3.809.5-6.218-1.182-9.555a28.133,28.133,0,0,1-3.345-18.284c1.569-12.725,9.85-16.124,14.5-16.124.08,0,.157,0,.232.007,1.958-2.208,6.378-4.328,12.247-4.328a29.017,29.017,0,0,1,15.072,4.54c10.146,6.24,12.58,4.185,12.591,4.18a.764.764,0,0,1,.858-.277.811.811,0,0,1,.546.756,10.014,10.014,0,0,1-5.9,9.076,12.332,12.332,0,0,1-5,1.053,13.553,13.553,0,0,1-5.233-1.075,29.935,29.935,0,0,1-1.118,5.066c-1.142,3.447-3.571,7.008-5.651,7.008h0c-.768,0-2.07-.451-2.145-3.494a3.738,3.738,0,0,0-3.829-3.914,4.036,4.036,0,0,0-3.524,3.459c-.513,2.714.18,5.1,1.636,8.558,1.289,3.063,1.4,5.662-2.06,9.118C980.35,134.1,973.68,136.318,967.315,136.318Zm-.6-1.591c6.073.152,12.738-1.978,15.7-4.936,3.147-3.15,2.669-5.123,1.721-7.388-1.282-3.035-2.377-6.046-1.733-9.465a5.6,5.6,0,0,1,4.954-4.742,5.324,5.324,0,0,1,5.545,5.455c.035,1.419.362,1.948.559,1.948.868,0,2.963-2.364,4.15-5.926a30.506,30.506,0,0,0,1.172-5.841.794.794,0,0,1,1.2-.609,11.715,11.715,0,0,0,5.482,1.377,10.766,10.766,0,0,0,4.362-.923,8.1,8.1,0,0,0,4.848-6.283,5.307,5.307,0,0,1-1.2.125c-2.764,0-6.784-1.6-11.932-4.769A27.412,27.412,0,0,0,987.3,88.443c-5.595,0-9.765,2.095-11.266,4.043a.812.812,0,0,1-.716.3,4.027,4.027,0,0,0-.5-.022c-1.137,0-11.159.412-12.925,14.728a26.742,26.742,0,0,0,3.19,17.379C966.674,128.039,968.063,130.805,966.717,134.726Z" transform="translate(-956.507 -86.856)"/></g><g transform="translate(34.523 32.337)"><path class="a" d="M1036.1,171.967a3.627,3.627,0,0,0,3.629-3.624c0-2-1.247-4.135-3.629-6.213-2.372,2.078-3.619,4.21-3.619,6.213A3.62,3.62,0,0,0,1036.1,171.967Z" transform="translate(-1031.688 -161.337)"/><path class="c" d="M1035.086,171.746a4.421,4.421,0,0,1-4.412-4.417c0-2.225,1.342-4.577,3.891-6.812a.8.8,0,0,1,1.043,0c2.554,2.225,3.9,4.579,3.9,6.812A4.426,4.426,0,0,1,1035.086,171.746Zm0-9.557c-1.855,1.763-2.833,3.529-2.833,5.14a2.834,2.834,0,0,0,5.667,0C1037.922,165.715,1036.944,163.947,1035.088,162.188Z" transform="translate(-1030.674 -160.323)"/></g><g transform="translate(64.562)"><path class="c" d="M1110.3,123.086a.792.792,0,0,1-.793-.793V95.568a.791.791,0,0,1,1.581,0v26.725A.79.79,0,0,1,1110.3,123.086Z" transform="translate(-1104.951 -91.206)"/><path class="c" d="M1109.227,157.026a1.634,1.634,0,1,1,1.631-1.636A1.634,1.634,0,0,1,1109.227,157.026Z" transform="translate(-1103.879 -124.302)"/><path class="b" d="M1104.474,123.072a5.353,5.353,0,0,1-5.348-5.349,5.26,5.26,0,0,1,.988-3.066V91a4.357,4.357,0,1,1,8.714,0v23.659a5.245,5.245,0,0,1,.988,3.066A5.352,5.352,0,0,1,1104.474,123.072Zm0-34.848A2.777,2.777,0,0,0,1101.7,91v23.924a.805.805,0,0,1-.169.494,3.7,3.7,0,0,0-.818,2.307,3.76,3.76,0,1,0,7.52,0,3.689,3.689,0,0,0-.818-2.307.806.806,0,0,1-.17-.494V91A2.778,2.778,0,0,0,1104.474,88.224Z" transform="translate(-1099.127 -86.635)"/></g></g><g transform="translate(28.736 21.35)"><g transform="translate(0 0.091)"><path class="d" d="M1022.063,202.847a56.052,56.052,0,0,0,6.517,4.562c4.23,2.581,8.276,5.1,11.229,3.729s3.367-3.422,2.96-5.981.22-1.252,1.182-1.836,1.18-2.282-.913-2.9a6.541,6.541,0,0,0-2.8-.2" transform="translate(-992.111 -151.22)"/><path class="d" d="M1070.146,128.154c1.245,1.564,1.968,5.721,2.142,8.557,1.267,1.534,2.27,3.068,1.911,5.287-.28,1.776-1.407,1.484-1.1,2.536a18.347,18.347,0,0,0,4.328,6.682c2.831,3.05-.816,4.462-2.9,4.462-1.317,0-1.885-.145-2.155,1.107-.275,1.227.474,1.816-.152,2.844-.414.673-1.08.676-2.359.394" transform="translate(-1018.934 -110.824)"/><path class="d" d="M1003.99,237.062s-18.965-19.511-37.734-20.285c.888-2.591,2.686-6.285,2.686-6.285a52.092,52.092,0,0,1,19.183,6.285,92.3,92.3,0,0,1,9.672,6.455l2.7,10.483" transform="translate(-960.794 -157.029)"/><path class="d" d="M959.271,224.814a76.572,76.572,0,0,0-5.462,6.158" transform="translate(-953.809 -165.066)"/><line class="d" x1="0.568" y2="3.736" transform="translate(10.765 47.846)"/><path class="d" d="M966.59,136.478c3.963-8.847-6.577-10.9-4.464-28.069,1.778-14.436,11.962-15.653,14.294-15.4,3.023-3.913,14.291-7.46,26.552.072,11.438,7.036,13.616,4.008,13.616,4.008a9.13,9.13,0,0,1-5.427,8.328,12.216,12.216,0,0,1-10.573-.5,30.783,30.783,0,0,1-1.212,6.021c-1.8,5.425-6.111,9.336-6.25,3.746-.07-2.756-2.125-4.9-4.686-4.684a4.817,4.817,0,0,0-4.238,4.1c-.574,3.046.294,5.719,1.681,9.014,1.087,2.584,1.469,4.9-1.886,8.253C980.725,134.63,973.2,136.95,966.59,136.478Z" transform="translate(-958.318 -88.662)"/><path class="d" d="M1059.364,160.158a15.313,15.313,0,0,0,2.978,2.826l-2.853,1.227" transform="translate(-1013.043 -128.783)"/></g><path class="d" d="M1036.1,171.967a3.627,3.627,0,0,0,3.629-3.624c0-2-1.247-4.135-3.629-6.213-2.372,2.078-3.619,4.21-3.619,6.213A3.62,3.62,0,0,0,1036.1,171.967Z" transform="translate(-997.957 -129.799)"/><g transform="translate(64.564)"><line class="d" y2="26.725" transform="translate(4.554 3.564)"/><path class="d" d="M1111.079,156.4a.838.838,0,1,1-.838-.839A.837.837,0,0,1,1111.079,156.4Z" transform="translate(-1105.687 -126.115)"/><path class="d" d="M1109.053,115.942V92.018a3.566,3.566,0,0,0-7.131,0v23.924a4.5,4.5,0,0,0-.987,2.8,4.553,4.553,0,1,0,9.106,0A4.487,4.487,0,0,0,1109.053,115.942Z" transform="translate(-1100.935 -88.454)"/></g></g><text class="e" transform="translate(109.994 46.001)"><tspan x="-4.59" y="0">38</tspan></text></g></svg>