<svg xmlns="http://www.w3.org/2000/svg" width="122.873" height="122.869" viewBox="0 0 122.873 122.869"><defs><style>.a,.c{fill:#fff;}.b{fill:none;stroke:#470b00;}.b,.c{stroke-miterlimit:10;}.c{stroke:#47545e;stroke-width:2px;}.d{fill:#470b00;}.e{fill:#47545e;}.f{fill:#de0000;}</style></defs><g transform="translate(0 0)"><rect class="a" width="122.873" height="122.869" rx="61.435" transform="translate(0 0)"/><g transform="translate(20.351 31.493)"><g transform="translate(0 0)"><path class="a" d="M306.125,206.477c-.313-11.773-16.3-8.6-17.413-4.014-.753,3.1-4.89,5.3-4.89,5.3l6.79,8.474S306.533,221.785,306.125,206.477Z" transform="translate(-225.739 -170.711)"/><path class="b" d="M303.213,202.208c-.141-5.305-3.358-8.806-8.606-9.365-4.69-.5-10.575,1.564-11.428,5.071-.5,2.053-3.219,3.9-4.223,4.443a1.329,1.329,0,0,0-.412,2l6.79,8.474a1.332,1.332,0,0,0,.6.424,21.648,21.648,0,0,0,6.464,1.053,11.519,11.519,0,0,0,6.856-1.952C302.007,210.35,303.339,206.934,303.213,202.208Z" transform="translate(-221.498 -166.477)"/><path class="a" d="M47.892,206.481c.313-11.773,16.3-8.6,17.413-4.015.753,3.1,4.89,5.3,4.89,5.3l-6.79,8.474S47.485,221.79,47.892,206.481Z" transform="translate(-46.106 -170.714)"/><path class="b" d="M53.138,214.317a11.52,11.52,0,0,1-6.857-1.952c-2.752-2.011-4.084-5.427-3.959-10.153.141-5.305,3.358-8.806,8.606-9.365,4.691-.5,10.575,1.563,11.428,5.071.5,2.052,3.22,3.9,4.226,4.444a1.331,1.331,0,0,1,.41,2l-6.79,8.474a1.332,1.332,0,0,1-.6.424A21.651,21.651,0,0,1,53.138,214.317Zm-9.487-12.07h0Z" transform="translate(-41.865 -166.48)"/><path class="c" d="M140.907,135.213c-3.9-10.694-17.316-14.847-28.485-14.847s-24.586,4.153-28.484,14.848c-10.349,28.39,8.68,35.763,28.485,35.763S151.256,163.6,140.907,135.213Z" transform="translate(-71.336 -111.352)"/><path class="d" d="M212.6,255.567" transform="translate(-171.513 -214.288)"/><path class="e" d="M186.053,269.157a.945.945,0,0,1-.548-1.716,8.721,8.721,0,0,1,8.557,0,.945.945,0,1,1-1.093,1.541,6.083,6.083,0,0,0-3.185-.773,6.011,6.011,0,0,0-3.185.773A.941.941,0,0,1,186.053,269.157Z" transform="translate(-148.642 -222.486)"/><g transform="translate(13.045 25.947)"><path class="f" d="M111.937,225.048a.962.962,0,1,0-.961.962A.962.962,0,0,0,111.937,225.048Z" transform="translate(-106.454 -216.267)"/><path class="f" d="M114.19,196.947a.962.962,0,1,0-.962-.962A.962.962,0,0,0,114.19,196.947Z" transform="translate(-108.901 -194.14)"/><path class="f" d="M233.065,211.373a.962.962,0,1,0,.962.962A.962.962,0,0,0,233.065,211.373Z" transform="translate(-199.409 -206.587)"/><path class="f" d="M302.481,269.34a.962.962,0,1,0,.962.961A.962.962,0,0,0,302.481,269.34Z" transform="translate(-252.258 -250.721)"/><path class="f" d="M178.611,219.848a.962.962,0,1,0,.962.962A.962.962,0,0,0,178.611,219.848Z" transform="translate(-157.95 -213.04)"/><path class="f" d="M294.8,289.972a.962.962,0,1,0,.961.961A.962.962,0,0,0,294.8,289.972Z" transform="translate(-246.409 -266.43)"/><path class="f" d="M154.575,292.745a.962.962,0,1,0,.961.961A.962.962,0,0,0,154.575,292.745Z" transform="translate(-139.649 -268.541)"/><path class="f" d="M178.539,305.837a.962.962,0,1,0,.961.962A.962.962,0,0,0,178.539,305.837Z" transform="translate(-157.894 -278.508)"/><path class="f" d="M323.47,245.382a.962.962,0,1,0,.962.961A.962.962,0,0,0,323.47,245.382Z" transform="translate(-268.239 -232.481)"/><path class="f" d="M117.514,276.035a1.674,1.674,0,1,0,1.674,1.674A1.674,1.674,0,0,0,117.514,276.035Z" transform="translate(-110.89 -255.818)"/><circle class="f" cx="1.674" cy="1.674" r="1.674" transform="translate(36.914 26.351) rotate(-45)"/><path class="f" d="M309.187,220.846a1.674,1.674,0,1,0,1.674,1.674A1.674,1.674,0,0,0,309.187,220.846Z" transform="translate(-256.822 -213.8)"/><path class="f" d="M96.772,245.608a1.674,1.674,0,1,0,1.674,1.674A1.674,1.674,0,0,0,96.772,245.608Z" transform="translate(-95.098 -232.653)"/><path class="f" d="M160.155,191.32a1.674,1.674,0,1,0,1.674,1.674A1.674,1.674,0,0,0,160.155,191.32Z" transform="translate(-143.355 -191.32)"/></g><path class="c" d="M117.2,99.8c-7.513-11.014-19.477-16.95-34.646-17.208a2.033,2.033,0,0,0-1.036.267,2.032,2.032,0,0,0-1.036-.267c-15.168.257-27.132,6.194-34.646,17.208-7.492,10.983-7.177,26.08.837,41.521a2.048,2.048,0,0,0,1.134.989l.139.049a2.037,2.037,0,0,0,1.438-.03,108.651,108.651,0,0,1,11.752-3.911c-8.607-4.189-13.554-12.361-9.681-26.975a13.752,13.752,0,0,0,9.707-4.984,12.561,12.561,0,0,0,1.363-2.172,85.184,85.184,0,0,0,14.449,6.753,86.424,86.424,0,0,0,29.037,4.969q3.241,0,6.492-.239c1.886,11.933-2.888,18.89-10.606,22.647a108.594,108.594,0,0,1,11.752,3.911,2.037,2.037,0,0,0,1.438.03l.139-.049a2.048,2.048,0,0,0,1.134-.989C124.378,125.881,124.693,110.784,117.2,99.8Z" transform="translate(-40.434 -82.593)"/></g><path class="e" d="M1753.369,1240.412c-.05,0-.1-.01-.145-.01a12.647,12.647,0,0,1-4.1-1.437.794.794,0,0,1,.225-1.447,10.273,10.273,0,0,0,5.113-2.664.8.8,0,0,1,1.132,1.118,10.619,10.619,0,0,1-3.816,2.434,13.8,13.8,0,0,0,1.726.429.795.795,0,0,1-.14,1.576Z" transform="translate(-1695.543 -1197.399)"/><path class="e" d="M1719.649,1240.412a.8.8,0,0,1-.144-1.576,14.616,14.616,0,0,0,1.731-.423,10.657,10.657,0,0,1-3.816-2.44.8.8,0,0,1,.014-1.127.79.79,0,0,1,1.118.01,10.293,10.293,0,0,0,5.113,2.664.793.793,0,0,1,.224,1.442,12.552,12.552,0,0,1-4.1,1.442C1719.744,1240.4,1719.694,1240.412,1719.649,1240.412Z" transform="translate(-1696.232 -1197.399)"/></g></g></svg>