<svg xmlns="http://www.w3.org/2000/svg" width="122.873" height="122.875" viewBox="0 0 122.873 122.875"><defs><style>.a{fill:#fff;}.b{fill:#47545e;}.c,.d{fill:#de0000;}.d{stroke:#de0000;}.e{fill:none;}</style></defs><g transform="translate(0 0)"><rect class="a" width="122.873" height="122.875" rx="61.436" transform="translate(0 0)"/><g transform="translate(19.915 20.186)"><g transform="translate(7.292 0)"><path class="b" d="M1028.04,980.261a.8.8,0,0,1-.788-.708c-.14-1.3-.252-2.205-.332-2.844a12.939,12.939,0,0,1-.14-1.4c0-1.252,2.392-3.671,3.819-5a.8.8,0,0,1,1.122.04.787.787,0,0,1-.04,1.117,15.178,15.178,0,0,0-3.317,3.876c0,.155.055.559.129,1.182.08.639.195,1.546.339,2.863a.79.79,0,0,1-.708.868A.232.232,0,0,1,1028.04,980.261Z" transform="translate(-992.543 -897.749)"/><path class="b" d="M1008.554,980.108a.259.259,0,0,1-.085-.01.791.791,0,0,1-.7-.873c.144-1.292.254-2.2.339-2.838s.129-1.047.129-1.232a16.913,16.913,0,0,0-3.429-3.966.792.792,0,0,1,1.083-1.157c1.182,1.108,3.933,3.811,3.933,5.123a14.157,14.157,0,0,1-.145,1.432c-.08.633-.194,1.526-.334,2.813A.8.8,0,0,1,1008.554,980.108Z" transform="translate(-980.07 -897.596)"/><path class="b" d="M1020.294,953.611h-4.07a.793.793,0,1,1,0-1.586h4.07a.793.793,0,1,1,0,1.586Z" transform="translate(-986.174 -887.611)"/><path class="b" d="M985.461,938.018a5.407,5.407,0,0,0,1.452,3.138c2.851,3.038,8.283,3.038,8.283,3.038s-3.2,1.008-3.627,3.511a8.081,8.081,0,0,1-2.155,4.514,23.455,23.455,0,0,0-4.277-4.1,4.131,4.131,0,0,1-1.479-5.078l1.8-5.028m0-1.566a1.571,1.571,0,0,0-1.489,1.037l-1.771,4.933a5.758,5.758,0,0,0,1.936,6.934,23.467,23.467,0,0,1,3.97,3.752,1.6,1.6,0,0,0,1.117.678c.07,0,.135.01.2.01a1.6,1.6,0,0,0,1.047-.389,9.521,9.521,0,0,0,2.664-5.432c.257-1.487,2.519-2.255,2.539-2.265a1.588,1.588,0,0,0-.474-3.1c-.045,0-4.789-.04-7.123-2.534a3.813,3.813,0,0,1-1.028-2.15,1.6,1.6,0,0,0-1.372-1.461,1.556,1.556,0,0,0-.217-.01Z" transform="translate(-967.261 -878.872)"/><path class="b" d="M1038.611,938l1.816,5.028a4.133,4.133,0,0,1-1.484,5.078,23.465,23.465,0,0,0-4.275,4.1,8.074,8.074,0,0,1-2.157-4.514c-.434-2.5-3.624-3.511-3.624-3.511s5.425,0,8.276-3.038a5.375,5.375,0,0,0,1.449-3.138m0-1.582a1.893,1.893,0,0,0-.237.015,1.593,1.593,0,0,0-1.347,1.476,3.82,3.82,0,0,1-1.018,2.135c-2.32,2.479-7.074,2.544-7.124,2.544a1.588,1.588,0,0,0-.474,3.1c.015.01,2.279.778,2.537,2.265a9.555,9.555,0,0,0,2.668,5.437,1.618,1.618,0,0,0,1.05.389,1.466,1.466,0,0,0,.21-.01,1.586,1.586,0,0,0,1.117-.7h0a24.211,24.211,0,0,1,3.953-3.731,5.769,5.769,0,0,0,1.943-6.934l-1.788-4.943a1.594,1.594,0,0,0-1.492-1.043Z" transform="translate(-992.836 -878.852)"/><path class="b" d="M1010.527,836.621a1.124,1.124,0,0,1-.25-.03c-.845-.2-.845-1.157-.845-2.9v-5.422c-1.649,1.017-4.874,2.424-10.122,2.424a19.76,19.76,0,0,1-9.1-2.155.783.783,0,0,1-.382-1.048.8.8,0,0,1,1.055-.389,18.086,18.086,0,0,0,8.43,2.005c7.318,0,10.318-2.943,10.349-2.973a.793.793,0,0,1,1.359.554v6.864c.1-.2.195-.379.265-.524a2.833,2.833,0,0,1,1.731-1.651,2.43,2.43,0,0,1,.5-.045,30.212,30.212,0,0,0,.643-6.834c0-4.709-1.806-10.974-5.16-13.314a5.2,5.2,0,0,0-5.044-.534.792.792,0,0,1-.992-.409c-1.053-2.265-3.893-3.417-8.45-3.417-10.842,0-19.661,7.926-19.661,17.674a29.856,29.856,0,0,0,.649,6.834,1.853,1.853,0,0,1,.494.045,2.825,2.825,0,0,1,1.736,1.656c.035.075.075.155.115.234v-.658a10.994,10.994,0,0,1,.708-4.495.793.793,0,0,1,1.439.664,9.864,9.864,0,0,0-.561,3.831c0,3.023,0,3.651-.828,3.851s-1.1-.359-2.29-2.709c-.279-.564-.544-.793-.686-.823-.017,0-.078-.02-.207.07a.8.8,0,0,1-.729.12.811.811,0,0,1-.506-.534,29.35,29.35,0,0,1-.918-8.086c0-10.62,9.53-19.26,21.245-19.26,4.831,0,8.043,1.247,9.555,3.706a6.706,6.706,0,0,1,5.837.938c3.836,2.674,5.841,9.378,5.841,14.616a29.772,29.772,0,0,1-.908,8.086.771.771,0,0,1-.509.534.807.807,0,0,1-.728-.11c-.09-.07-.165-.1-.219-.08-.14.03-.4.26-.678.818C1011.686,835.743,1011.247,836.621,1010.527,836.621Z" transform="translate(-962.511 -805.24)"/><path class="b" d="M949.554,959.038a.791.791,0,0,1-.748-.519.8.8,0,0,1,.479-1.018c1.492-.528,3.826-1.436,6.3-2.4,2.878-1.112,5.859-2.274,7.867-2.978a.793.793,0,0,1,.524,1.5c-1.98.7-4.949,1.846-7.817,2.958-2.484.972-4.828,1.88-6.34,2.419A.811.811,0,0,1,949.554,959.038Z" transform="translate(-948.761 -887.64)"/><path class="b" d="M1073.486,958.979a.841.841,0,0,1-.269-.04c-1.519-.549-3.881-1.462-6.375-2.434-2.906-1.128-5.906-2.29-7.907-2.993a.794.794,0,1,1,.529-1.5c2.02.718,5.036,1.886,7.952,3.013,2.487.968,4.836,1.876,6.335,2.414a.79.79,0,0,1-.264,1.537Z" transform="translate(-1010.289 -887.581)"/><g transform="translate(10.114 20.656)"><path class="b" d="M993.69,892.158c-4.375,0-9.862-1.122-13.508-9.857-2.1-5.028-3.911-7.672-5.549-8.086-2.3-.584-2.823-9.353-2.823-10.66,0-3.023,1.055-5.4,2.569-5.757.566-.134,1.654-.1,2.532,1.656a.791.791,0,1,1-1.412.714c-.334-.664-.638-.848-.753-.823-.484.11-1.352,1.616-1.352,4.211,0,3.7,1.022,8.614,1.716,9.158,2.125.519,4.173,3.3,6.537,8.979,3.265,7.821,7.924,8.874,12.044,8.874s8.764-1.053,12.031-8.874c2.347-5.627,4.378-8.4,6.57-9,.693-.639,1.689-5.477,1.689-9.133,0-2.589-.871-4.1-1.354-4.211-.11-.025-.419.16-.748.823-1.118,2.22-1.537,3.048-2.414,2.838-.848-.2-.848-1.157-.848-2.9v-7a.793.793,0,1,1,1.586,0v6.859c.1-.2.19-.374.259-.509.883-1.756,1.966-1.8,2.529-1.656,1.517.359,2.574,2.734,2.574,5.757,0,1.307-.524,10.076-2.818,10.66-1.641.414-3.459,3.058-5.56,8.086C1003.537,891.035,998.055,892.158,993.69,892.158Z" transform="translate(-971.809 -852.311)"/></g><g transform="translate(21.306 54.621)"><path class="b" d="M1008,936.09a13.231,13.231,0,0,1-10.516-5.1.792.792,0,1,1,1.247-.978,11.675,11.675,0,0,0,9.269,4.495h0a11.644,11.644,0,0,0,9.259-4.495.8.8,0,0,1,1.255.978,13.217,13.217,0,0,1-10.51,5.1Z" transform="translate(-997.314 -929.71)"/></g><g transform="translate(17.896 14.895)"><path class="a" d="M994.973,850.827a3.627,3.627,0,0,0,3.626-3.622c0-2.005-1.247-4.14-3.626-6.215-2.372,2.075-3.624,4.21-3.624,6.215A3.625,3.625,0,0,0,994.973,850.827Z" transform="translate(-990.556 -840.197)"/><path class="c" d="M993.959,850.611a4.424,4.424,0,0,1-4.417-4.42c0-2.23,1.347-4.584,3.893-6.814a.8.8,0,0,1,1.043,0c2.551,2.225,3.9,4.579,3.9,6.814A4.427,4.427,0,0,1,993.959,850.611Zm0-9.563c-1.856,1.761-2.831,3.527-2.831,5.143a2.832,2.832,0,1,0,5.664,0C996.792,844.575,995.817,842.8,993.959,841.048Z" transform="translate(-989.542 -839.183)"/></g><g transform="translate(65.205 18.422)"><path class="c" d="M1091.017,883.661a.789.789,0,0,1-.8-.788V856.151a.794.794,0,0,1,1.589,0v26.723A.787.787,0,0,1,1091.017,883.661Z" transform="translate(-1085.669 -851.786)"/><path class="c" d="M1089.948,917.6a1.634,1.634,0,1,1,1.631-1.631A1.634,1.634,0,0,1,1089.948,917.6Z" transform="translate(-1084.6 -884.88)"/><path class="b" d="M1085.2,883.654a5.349,5.349,0,0,1-5.348-5.347,5.252,5.252,0,0,1,.988-3.068V851.584a4.358,4.358,0,1,1,8.717,0v23.65a5.261,5.261,0,0,1,.988,3.073A5.349,5.349,0,0,1,1085.2,883.654Zm0-34.848a2.78,2.78,0,0,0-2.776,2.778V875.5a.785.785,0,0,1-.17.489,3.717,3.717,0,0,0-.82,2.315,3.762,3.762,0,0,0,7.525,0,3.662,3.662,0,0,0-.816-2.3.841.841,0,0,1-.174-.5V851.584A2.777,2.777,0,0,0,1085.2,848.805Z" transform="translate(-1079.848 -847.219)"/></g></g><path class="d" d="M.062,16.643,1.926,14.78a.02.02,0,0,0,0-.029L.163,12.99a.442.442,0,0,1,0-.625L1.926,10.6a.02.02,0,0,0,0-.029L.163,8.814a.442.442,0,0,1,0-.625L1.926,6.428a.02.02,0,0,0,0-.029L.163,4.638a.442.442,0,0,1,0-.625L1.926,2.252a.02.02,0,0,0,0-.029L.062.36a.211.211,0,0,1,.3-.3L2.223,1.925a.442.442,0,0,1,0,.625L.461,4.311a.02.02,0,0,0,0,.029L2.223,6.1a.442.442,0,0,1,0,.625L.461,8.487a.02.02,0,0,0,0,.029l1.762,1.761a.442.442,0,0,1,0,.625L.461,12.663a.02.02,0,0,0,0,.029l1.762,1.761a.442.442,0,0,1,0,.625L.361,16.941a.211.211,0,0,1-.3-.3Z" transform="translate(61.436 60.057) rotate(-65)"/><path class="d" d="M.062.36,1.926,2.223a.02.02,0,0,1,0,.029L.164,4.013a.442.442,0,0,0,0,.625L1.926,6.4a.02.02,0,0,1,0,.029L.164,8.189a.442.442,0,0,0,0,.625l1.762,1.761a.02.02,0,0,1,0,.029L.163,12.365a.442.442,0,0,0,0,.625l1.762,1.761a.02.02,0,0,1,0,.029L.062,16.643a.211.211,0,0,0,.3.3l1.863-1.863a.442.442,0,0,0,0-.625L.461,12.692a.02.02,0,0,1,0-.029L2.223,10.9a.442.442,0,0,0,0-.625L.461,8.516a.02.02,0,0,1,0-.029L2.223,6.726a.442.442,0,0,0,0-.625L.461,4.34a.02.02,0,0,1,0-.029L2.224,2.55a.442.442,0,0,0,0-.625L.361.062a.211.211,0,0,0-.3.3Z" transform="translate(0.994 67.243) rotate(-115)"/><path class="d" d="M.062.36,1.926,2.223a.02.02,0,0,1,0,.029L.164,4.013a.442.442,0,0,0,0,.625L1.926,6.4a.02.02,0,0,1,0,.029L.164,8.189a.442.442,0,0,0,0,.625l1.762,1.761a.02.02,0,0,1,0,.029L.163,12.365a.442.442,0,0,0,0,.625l1.762,1.761a.02.02,0,0,1,0,.029L.062,16.643a.211.211,0,0,0,.3.3l1.863-1.863a.442.442,0,0,0,0-.625L.461,12.692a.02.02,0,0,1,0-.029L2.223,10.9a.442.442,0,0,0,0-.625L.461,8.516a.02.02,0,0,1,0-.029L2.223,6.726a.442.442,0,0,0,0-.625L.461,4.34a.02.02,0,0,1,0-.029L2.224,2.55a.442.442,0,0,0,0-.625L.361.062a.211.211,0,0,0-.3.3Z" transform="matrix(-0.819, 0.574, -0.574, -0.819, 22.244, 51.433)"/><path class="d" d="M.062,16.643,1.926,14.78a.02.02,0,0,0,0-.029L.164,12.99a.442.442,0,0,1,0-.625L1.926,10.6a.02.02,0,0,0,0-.029L.164,8.814a.442.442,0,0,1,0-.625L1.926,6.428a.02.02,0,0,0,0-.029L.163,4.638a.442.442,0,0,1,0-.625L1.926,2.252a.02.02,0,0,0,0-.029L.062.36a.211.211,0,0,1,.3-.3L2.223,1.925a.442.442,0,0,1,0,.625L.461,4.311a.02.02,0,0,0,0,.029L2.223,6.1a.442.442,0,0,1,0,.625L.461,8.487a.02.02,0,0,0,0,.029l1.762,1.761a.442.442,0,0,1,0,.625L.461,12.663a.02.02,0,0,0,0,.029l1.762,1.761a.442.442,0,0,1,0,.625L.361,16.941a.211.211,0,0,1-.3-.3Z" transform="matrix(0.819, 0.574, -0.574, 0.819, 65.626, 37.505)"/></g><g transform="translate(47.738 38.462)"><g transform="translate(0 0)"><path class="e" d="M1029.057,980.474c-.289-2.723-.464-3.711-.464-4.155,0-.853,2.245-3.2,3.564-4.425" transform="translate(-994.354 -899.554)"/><path class="e" d="M1009.567,980.321c.3-2.723.474-3.711.474-4.155,0-.853-2.364-3.317-3.681-4.544" transform="translate(-981.877 -899.402)"/><line class="e" x2="4.07" transform="translate(29.256 64.414)"/><path class="e" d="M991.56,828.836a18.882,18.882,0,0,0,8.764,2.085c7.812,0,10.915-3.217,10.915-3.217v7c0,2.888.152,2.888,1.766-.3.644-1.287,1.412-1.511,2.08-1.018a29.472,29.472,0,0,0,.88-7.871c0-7.053-3.8-17.349-11.274-14.591-1.491-3.218-5.684-3.876-9.168-3.876-11.3,0-20.452,8.27-20.452,18.467a29.051,29.051,0,0,0,.886,7.866c.661-.489,1.431-.255,2.07,1.023,1.621,3.193,1.621,3.193,1.621-.778a10.124,10.124,0,0,1,.633-4.16" transform="translate(-964.319 -807.048)"/><path class="e" d="M964.726,953.889c-3.714,1.307-10.922,4.22-14.157,5.377" transform="translate(-950.569 -889.45)"/><path class="e" d="M1060.217,953.775c3.744,1.317,11.022,4.26,14.287,5.427" transform="translate(-1012.1 -889.387)"/><g transform="translate(10.114 20.656)"><path class="e" d="M977.215,860.823c-1.474-2.928-3.6-.384-3.6,3.747,0,3.461,1,9.577,2.222,9.892,1.7.429,3.6,2.579,6.088,8.555,3.289,7.872,8.091,9.358,12.777,9.358s9.473-1.486,12.765-9.358c2.494-5.976,4.39-8.126,6.1-8.555,1.222-.315,2.222-6.43,2.222-9.892,0-4.131-2.132-6.675-3.6-3.747-1.607,3.193-1.761,3.193-1.761.3v-7" transform="translate(-973.616 -854.119)"/></g><g transform="translate(21.52 30.578)"><path class="e" d="M1036.666,876.728a11.286,11.286,0,0,1-5.492,2.884,11.652,11.652,0,0,0,3.823,1.322" transform="translate(-1017.322 -876.728)"/><path class="e" d="M999.608,876.728a11.284,11.284,0,0,0,5.492,2.884,11.631,11.631,0,0,1-3.826,1.322" transform="translate(-999.608 -876.728)"/></g><path class="e" d="M994.973,850.827a3.627,3.627,0,0,0,3.626-3.622c0-2.005-1.247-4.14-3.626-6.215-2.372,2.075-3.624,4.21-3.624,6.215A3.625,3.625,0,0,0,994.973,850.827Z" transform="translate(-973.453 -826.095)"/><g transform="translate(57.52 18.421)"><line class="e" y2="26.722" transform="translate(4.559 3.572)"/><path class="e" d="M1091.8,916.988a.839.839,0,1,1-.838-.838A.836.836,0,0,1,1091.8,916.988Z" transform="translate(-1086.399 -886.694)"/><path class="e" d="M1089.768,876.517V852.6a3.567,3.567,0,1,0-7.134,0v23.919a4.5,4.5,0,0,0-.99,2.8,4.556,4.556,0,0,0,9.111,0A4.48,4.48,0,0,0,1089.768,876.517Z" transform="translate(-1081.644 -849.026)"/></g></g></g></g></svg>