<svg xmlns="http://www.w3.org/2000/svg" width="123" height="123" viewBox="0 0 123 123"><defs><style>.a{fill:#fff;}.b{fill:#47545e;}.c{fill:none;}.d{fill:#de0000;}</style></defs><g transform="translate(-0.099 -0.056)"><rect class="a" width="123" height="123" rx="61.5" transform="translate(0.099 0.056)"/><g transform="translate(29.402 20.186)"><g transform="translate(0 0)"><g transform="translate(10.758)"><path class="b" d="M2089.562,836.611c-1.052,0-1.052-1.162-1.052-2.918v-5.422c-1.651,1.017-4.878,2.424-10.121,2.424a20.174,20.174,0,0,1-9.523-2.345,12.006,12.006,0,0,0-5.387-1.566c-4.23,0-4.973,1.886-4.973,5.826,0,1.067,0,1.836-.035,2.375-.025.449-.085,1.5-1,1.5-.7,0-.937-.469-2.085-2.733-.329-.659-.608-.828-.714-.828a.363.363,0,0,0-.179.079.8.8,0,0,1-.733.12.824.824,0,0,1-.5-.534,29.521,29.521,0,0,1-.913-8.086c0-10.625,9.528-19.26,21.24-19.26,4.834,0,8.041,1.242,9.557,3.706a7.633,7.633,0,0,1,2.02-.289c6.589,0,9.658,9.448,9.658,15.843a29.675,29.675,0,0,1-.913,8.091.774.774,0,0,1-.509.529.807.807,0,0,1-.729-.11.315.315,0,0,0-.179-.085c-.119,0-.409.215-.719.823C2090.65,835.973,2090.3,836.611,2089.562,836.611ZM2089.3,825.9a.8.8,0,0,1,.793.793v6.859c.1-.194.194-.379.265-.519.748-1.487,1.611-1.731,2.229-1.7a30.183,30.183,0,0,0,.643-6.834c0-5.976-2.8-14.256-8.071-14.256a6.207,6.207,0,0,0-2.13.409.8.8,0,0,1-1-.409c-1.053-2.275-3.891-3.422-8.45-3.422-10.835,0-19.654,7.931-19.654,17.678a30.074,30.074,0,0,0,.644,6.834c.613-.04,1.486.215,2.229,1.7.04.079.075.15.115.229v-.649c0-3.582.5-7.413,6.56-7.413a13.53,13.53,0,0,1,6.061,1.711,18.748,18.748,0,0,0,8.849,2.2c7.318,0,10.315-2.943,10.346-2.973A.785.785,0,0,1,2089.3,825.9Z" transform="translate(-2052.345 -805.24)"/></g><g transform="translate(21.525 30.576)"><path class="b" d="M2113.063,880.71a.477.477,0,0,1-.145-.015,12.4,12.4,0,0,1-4.1-1.431.793.793,0,0,1-.369-.793.808.808,0,0,1,.593-.654,10.355,10.355,0,0,0,5.113-2.659.79.79,0,1,1,1.133,1.1,10.632,10.632,0,0,1-3.822,2.449,14.5,14.5,0,0,0,1.736.429.792.792,0,0,1-.145,1.571Z" transform="translate(-2094.595 -874.917)"/><path class="b" d="M2079.338,880.71a.792.792,0,0,1-.144-1.571,14.413,14.413,0,0,0,1.731-.429,10.6,10.6,0,0,1-3.816-2.449.792.792,0,0,1,1.137-1.1,10.308,10.308,0,0,0,5.114,2.659.8.8,0,0,1,.588.654.793.793,0,0,1-.369.793,12.439,12.439,0,0,1-4.1,1.431A.5.5,0,0,1,2079.338,880.71Z" transform="translate(-2076.883 -874.917)"/></g><path class="b" d="M2107.616,970.3a.8.8,0,0,1-.783-.7,13.327,13.327,0,0,1,.319-5.078c.05-.2.09-.379.12-.544a14.6,14.6,0,0,1,1.5-3.647c1.167-2.264,2.364-4.6,1.686-6.984a.794.794,0,1,1,1.526-.439c.853,2.983-.559,5.726-1.8,8.151a13.5,13.5,0,0,0-1.357,3.212c-.03.18-.079.384-.129.609a11.951,11.951,0,0,0-.294,4.519.794.794,0,0,1-.688.888A.339.339,0,0,1,2107.616,970.3Z" transform="translate(-2072.102 -887.785)"/><path class="b" d="M2122.569,938l1.816,5.028a4.138,4.138,0,0,1-1.481,5.078c-3.442,2.818-2.275,4.1-2.275,4.1a8.125,8.125,0,0,1-2.155-4.514,5.487,5.487,0,0,0-1.82-3.5,12.386,12.386,0,0,0,4.465-3.048,4.99,4.99,0,0,0,1.451-3.138m0-1.582a1.458,1.458,0,0,0-.255.02,1.577,1.577,0,0,0-1.326,1.511,3.476,3.476,0,0,1-.988,2.065,11.308,11.308,0,0,1-3.836,2.659,1.591,1.591,0,0,0-.435,2.8,4.14,4.14,0,0,1,1.183,2.484,9.545,9.545,0,0,0,2.669,5.432,1.586,1.586,0,0,0,1.047.394,1.583,1.583,0,0,0,1.417-2.3c.07-.23.394-.943,1.855-2.14a5.766,5.766,0,0,0,1.946-6.934l-1.786-4.943a1.582,1.582,0,0,0-1.491-1.043Z" transform="translate(-2076.788 -878.852)"/><path class="b" d="M2028.622,959.263a.791.791,0,0,1-.265-1.537c1.452-.519,3.731-1.406,6.151-2.344,2.763-1.067,5.617-2.18,7.542-2.859a.794.794,0,0,1,.528,1.5c-1.9.668-4.749,1.776-7.5,2.843-2.424.943-4.714,1.831-6.186,2.36A.838.838,0,0,1,2028.622,959.263Z" transform="translate(-2027.831 -887.866)"/><path class="b" d="M2153.107,959.18a.81.81,0,0,1-.264-.04c-1.477-.529-3.771-1.417-6.2-2.364-2.818-1.093-5.727-2.215-7.667-2.9a.793.793,0,0,1,.524-1.5c1.966.693,4.888,1.826,7.712,2.923,2.419.938,4.7,1.826,6.156,2.344a.79.79,0,0,1-.264,1.537Z" transform="translate(-2089.908 -887.783)"/><path class="b" d="M2086.8,970.3a.292.292,0,0,1-.095-.01.786.786,0,0,1-.688-.888,12.145,12.145,0,0,0-.3-4.544c-.05-.215-.1-.4-.129-.578a13.544,13.544,0,0,0-1.357-3.228c-1.237-2.414-2.644-5.158-1.791-8.141a.792.792,0,1,1,1.521.439c-.678,2.379.519,4.719,1.686,6.979a14.562,14.562,0,0,1,1.5,3.652c.03.155.07.324.115.519a13.313,13.313,0,0,1,.324,5.1A.792.792,0,0,1,2086.8,970.3Z" transform="translate(-2058.33 -887.785)"/><path class="b" d="M2064.534,938.018a5.468,5.468,0,0,0,1.452,3.138,12.874,12.874,0,0,0,4.465,3.048,5.54,5.54,0,0,0-1.821,3.5,8.041,8.041,0,0,1-2.155,4.514s1.172-1.277-2.275-4.1a4.139,4.139,0,0,1-1.477-5.078l1.811-5.028m0-1.566a1.572,1.572,0,0,0-1.486,1.027l-1.781,4.943a5.764,5.764,0,0,0,1.941,6.934c1.462,1.2,1.786,1.911,1.856,2.14a1.591,1.591,0,0,0,2.464,1.915,9.526,9.526,0,0,0,2.669-5.437,4.223,4.223,0,0,1,1.212-2.514,1.535,1.535,0,0,0,.628-1.492,1.582,1.582,0,0,0-1.037-1.262,11.216,11.216,0,0,1-3.841-2.634,3.83,3.83,0,0,1-1.033-2.155,1.6,1.6,0,0,0-1.372-1.456,1.624,1.624,0,0,0-.219-.01Z" transform="translate(-2046.33 -878.872)"/><g transform="translate(10.12 20.656)"><path class="b" d="M2072.77,892.153c-4.37,0-9.857-1.123-13.509-9.852-2.095-5.028-3.91-7.677-5.552-8.091-2.3-.569-2.818-9.348-2.818-10.655,0-3.033,1.052-5.4,2.568-5.762.564-.134,1.651-.095,2.53,1.656a.793.793,0,1,1-1.417.714c-.329-.659-.633-.848-.748-.818-.484.11-1.352,1.616-1.352,4.211,0,3.7,1.023,8.614,1.716,9.158,2.13.519,4.17,3.3,6.535,8.979,3.267,7.821,7.926,8.874,12.047,8.874s8.764-1.053,12.031-8.874c2.35-5.627,4.38-8.405,6.57-9,.693-.644,1.686-5.482,1.686-9.133,0-2.594-.868-4.1-1.352-4.211-.134-.03-.419.16-.748.818-1.087,2.159-1.531,3.052-2.414,2.843-.848-.2-.848-1.157-.848-2.9v-7a.793.793,0,1,1,1.586,0v6.859c.1-.2.189-.379.255-.514.883-1.751,1.96-1.79,2.534-1.656,1.511.364,2.574,2.729,2.574,5.762,0,1.307-.524,10.076-2.819,10.655-1.636.409-3.457,3.053-5.557,8.091C2082.616,891.03,2077.139,892.153,2072.77,892.153Z" transform="translate(-2050.891 -852.311)"/><path class="b" d="M186.053,269.157a.945.945,0,0,1-.548-1.716,8.721,8.721,0,0,1,8.557,0,.945.945,0,1,1-1.093,1.541,6.083,6.083,0,0,0-3.185-.773,6.011,6.011,0,0,0-3.185.773A.941.941,0,0,1,186.053,269.157Z" transform="translate(-167.813 -241.819)"/></g></g></g><g transform="translate(47.868 38.465)"><g transform="translate(10.755)"><path class="c" d="M2057.105,834.4c1.615,3.193,1.615,3.193,1.615-.778s.733-6.615,5.767-6.615,7.1,3.9,14.91,3.9,10.914-3.207,10.914-3.207v7c0,2.888.15,2.888,1.766-.3.643-1.287,1.412-1.516,2.08-1.018a29.5,29.5,0,0,0,.878-7.871c0-7.063-3.8-17.349-11.273-14.6-1.492-3.218-5.687-3.871-9.168-3.871-11.293,0-20.452,8.265-20.452,18.467a29.04,29.04,0,0,0,.887,7.867C2055.693,832.887,2056.461,833.122,2057.105,834.4Z" transform="translate(-2054.142 -807.048)"/></g><g transform="translate(21.529 30.578)"><path class="c" d="M2115.742,876.728a11.318,11.318,0,0,1-5.492,2.884,11.637,11.637,0,0,0,3.821,1.322" transform="translate(-2096.402 -876.728)"/><path class="c" d="M2078.694,876.728a11.234,11.234,0,0,0,5.487,2.884,11.621,11.621,0,0,1-3.826,1.322" transform="translate(-2078.694 -876.728)"/></g><path class="c" d="M2108.639,970.51a14.1,14.1,0,0,1,.429-5.372c.569-2.968,4.345-6.869,3.163-11" transform="translate(-2073.912 -889.591)"/><path class="c" d="M2043.322,954.275c-3.591,1.277-10.555,4.091-13.687,5.208" transform="translate(-2029.634 -889.667)"/><path class="c" d="M2140.259,954.139c3.631,1.277,10.695,4.135,13.863,5.268" transform="translate(-2091.713 -889.591)"/><path class="c" d="M2087.82,970.51a13.851,13.851,0,0,0-.434-5.372c-.563-2.968-4.345-6.869-3.163-11" transform="translate(-2060.14 -889.591)"/><path class="c" d="M2099.89,957.98a3.073,3.073,0,1,1-3.073-3.068A3.077,3.077,0,0,1,2099.89,957.98Z" transform="translate(-2065.61 -890.025)"/><g transform="translate(10.116 20.656)"><path class="c" d="M2056.289,860.818c-1.472-2.928-3.6-.379-3.6,3.752,0,3.451,1,9.577,2.225,9.886,1.706.429,3.6,2.579,6.086,8.56,3.292,7.872,8.091,9.358,12.78,9.358s9.478-1.486,12.765-9.358c2.494-5.981,4.385-8.131,6.1-8.56,1.222-.309,2.219-6.435,2.219-9.886,0-4.131-2.13-6.679-3.6-3.752-1.606,3.193-1.761,3.193-1.761.3v-7" transform="translate(-2052.687 -854.119)"/></g></g><g transform="translate(32.638 22.271)"><g transform="translate(37.985 0.049)"><path class="d" d="M70.6,20.4a.78.78,0,0,1-.633-.4.657.657,0,0,1,.345-.863c10.241-4.315,14.325-8.054,13.865-9.78C83.656,7.57,77.5,6.822,66.741,8.778a.643.643,0,1,1-.23-1.266c4.142-.748,17.662-2.934,18.985,1.5,1.266,4.2-9.78,9.32-14.613,11.334A2.492,2.492,0,0,0,70.6,20.4Z" transform="translate(-65.985 -6.31)"/></g><g transform="translate(15.202 16.462)"><path class="d" d="M27.026,40.052a.591.591,0,0,1-.633-.575.65.65,0,0,1,.575-.748,116.174,116.174,0,0,0,14.786-3.337c.575-.173,1.208-.345,1.783-.518a.656.656,0,1,1,.345,1.266c-.575.173-1.208.345-1.783.518a109.782,109.782,0,0,1-14.958,3.394Z" transform="translate(-26.385 -34.839)"/></g><g transform="translate(0.041 10.377)"><path class="d" d="M7.838,36.25c-.633,0-1.208,0-1.783-.058C2.545,36.02.589,35.1.128,33.546c-.921-3.107,4.89-6.731,9.9-9.205a.643.643,0,1,1,.575,1.151C3.178,29.232.991,31.936,1.394,33.2c.288.921,2.014,1.553,4.775,1.726,1.151.058,2.416.058,3.855,0a.651.651,0,0,1,.69.633.691.691,0,0,1-.633.69Z" transform="translate(-0.031 -24.262)"/></g><g transform="translate(0 0)"><path class="d" d="M.731,10.87A.673.673,0,0,1,.1,10.41a2.669,2.669,0,0,1-.058-1.5C1.306,4.83,12.985,6.383,17.933,7.246a.643.643,0,0,1-.23,1.266C7.175,6.728,1.824,7.649,1.364,9.317a1.145,1.145,0,0,0,.058.748.6.6,0,0,1-.4.805Z" transform="translate(0.039 -6.225)"/></g><g transform="translate(9.551 10.665)"><path class="b" d="M29.011,30.882a.435.435,0,0,1-.23-.058,103.049,103.049,0,0,1-11.851-4.833.643.643,0,0,1,.575-1.151,90.893,90.893,0,0,0,11.679,4.775.684.684,0,0,1,.4.863A.572.572,0,0,1,29.011,30.882Z" transform="translate(-16.562 -24.762)"/></g><g transform="translate(35.683 10.435)"><path class="d" d="M76.031,36.293a69.836,69.836,0,0,1-13.52-1.668A.677.677,0,1,1,62.8,33.3c12.082,2.531,19.158,1.841,19.733-.115.345-1.208-1.841-3.97-9.147-7.594a.643.643,0,0,1,.575-1.151c5.005,2.474,10.758,6.1,9.838,9.147C83.165,35.545,80.116,36.293,76.031,36.293Z" transform="translate(-61.985 -24.362)"/></g><g transform="translate(1.709 3.725)"><path class="d" d="M6.94,20.064a1.092,1.092,0,0,1-.863-.46L5.33,18.4l-1.438-.058a.942.942,0,0,1-.863-.575A.88.88,0,0,1,3.2,16.727l.921-1.093-.4-1.381a.906.906,0,0,1,.288-.978A.98.98,0,0,1,5.042,13.1l1.323.575,1.208-.805a.863.863,0,0,1,1.036,0,.889.889,0,0,1,.46.921l-.115,1.438,1.151.921a1.054,1.054,0,0,1,.345.978.99.99,0,0,1-.748.748l-1.323.173-.518,1.381a1.019,1.019,0,0,1-.805.633ZM4.582,16.957l.978.058a.918.918,0,0,1,.805.46l.518.805.345-.921a1.085,1.085,0,0,1,.69-.633l.921-.23-.748-.575a.988.988,0,0,1-.345-.863l.058-.978L7,14.6a1.058,1.058,0,0,1-.921.115l-.863-.345.23.92a1.085,1.085,0,0,1-.173.921Z" transform="translate(-2.931 -12.7)"/></g><g transform="translate(32.931 10.286)"><path class="d" d="M60.422,32.328a.431.431,0,0,1-.288-.058,1,1,0,0,1-.69-.805l-.23-1.611-1.438-.69a1.024,1.024,0,0,1,0-1.841l1.438-.748.23-1.611a.919.919,0,0,1,.69-.805,1,1,0,0,1,1.036.23L62.32,25.54l1.553-.288a.933.933,0,0,1,.978.4,1.067,1.067,0,0,1,.115,1.093l-.748,1.438.748,1.438a1.068,1.068,0,0,1-.058,1.093.973.973,0,0,1-.978.4l-1.668-.288L61.17,31.983A.928.928,0,0,1,60.422,32.328Zm-1.553-4.085,1.036.518a1.086,1.086,0,0,1,.575.748l.173,1.151.805-.805a1.061,1.061,0,0,1,.92-.288l1.151.173L62.953,28.7a.883.883,0,0,1,0-.92l.518-1.036-1.151.23a1.061,1.061,0,0,1-.921-.288l-.805-.805-.173,1.151a.875.875,0,0,1-.575.748Z" transform="translate(-57.2 -24.103)"/></g></g></g></svg>