<svg xmlns="http://www.w3.org/2000/svg" width="123" height="121" viewBox="0 0 123 121"><defs><style>.a{fill:#fff;}.b,.c{fill:#47545e;}.b{stroke:#47545e;}.d{fill:#de0000;stroke:#fff;stroke-width:1.5px;}.e{stroke:none;}.f{fill:none;}</style></defs><g transform="translate(-0.05 -0.056)"><rect class="a" width="123" height="121" rx="60.5" transform="translate(0.05 0.056)"/><g transform="translate(23.577 26.11)"><path class="b" d="M241.763,98.728c-.895-1.908-1.812-3.865-2.673-6l-.842.738c.824,2.006,1.7,3.877,2.558,5.705,2.25,4.8,4.357,9.3,5.009,15.324a.53.53,0,0,0,1.054-.111C246.2,108.19,244.053,103.612,241.763,98.728Z" transform="translate(-172.434 -50.774)"/><path class="b" d="M168.031,38.531a.529.529,0,1,0-1.042.187,118.088,118.088,0,0,1,1.935,16.956,67.567,67.567,0,0,1-.569,11.89l.948.819a.232.232,0,0,0,.005-.031,67.892,67.892,0,0,0,.675-12.713A119.01,119.01,0,0,0,168.031,38.531Z" transform="translate(-155.897 -38.095)"/><path class="b" d="M159.325,98.728c-2.29,4.883-4.435,9.461-5.105,15.66a.53.53,0,0,0,1.054.111c.652-6.028,2.759-10.524,5.009-15.324.858-1.828,1.734-3.7,2.558-5.705L162,92.733C161.136,94.863,160.219,96.82,159.325,98.728Z" transform="translate(-152.935 -50.774)"/><path class="b" d="M235.78,38.719a.529.529,0,1,0-1.042-.187,119.016,119.016,0,0,0-1.952,17.11,67.891,67.891,0,0,0,.675,12.713.234.234,0,0,0,.005.031l.948-.819a67.567,67.567,0,0,1-.569-11.89A118.092,118.092,0,0,1,235.78,38.719Z" transform="translate(-171.153 -38.095)"/><path class="c" d="M186.053,266.32a.945.945,0,0,0-.548,1.716,8.72,8.72,0,0,0,8.557,0,.945.945,0,1,0-1.093-1.541,6.083,6.083,0,0,1-3.185.773,6.011,6.011,0,0,1-3.185-.773A.94.94,0,0,0,186.053,266.32Z" transform="translate(-151.869 -217.087)"/><g transform="translate(79.326 20.415) rotate(103)"><path class="d" d="M5.66,11.846a1.754,1.754,0,0,0-.821-1.308L-6.776,3.3l-1.88,2.96L1.034,12.3l-5.807,5.443a1.738,1.738,0,0,0-.537,1.527,1.738,1.738,0,0,0,.954,1.307L9.158,27.325l1.594-3.12L-.521,18.574l5.637-5.287A1.744,1.744,0,0,0,5.66,11.846Z" transform="translate(28.911 47.452) rotate(-7)"/><path class="d" d="M18.851,13.953a1.754,1.754,0,0,1,.164-1.535L26.283.824,29.271,2.66l-6.063,9.674,7.605,2.347a1.738,1.738,0,0,1,.867,2.73L22.492,29.4l-2.8-2.105,7.664-10-7.384-2.28A1.744,1.744,0,0,1,18.851,13.953Z" transform="translate(42.17 27.833) rotate(-173)"/><path class="d" d="M5.66,11.846a1.754,1.754,0,0,0-.821-1.308L-6.776,3.3l-1.88,2.96L1.034,12.3l-5.807,5.443a1.738,1.738,0,0,0-.537,1.527,1.738,1.738,0,0,0,.954,1.307L9.158,27.325l1.594-3.12L-.521,18.574l5.637-5.287A1.744,1.744,0,0,0,5.66,11.846Z" transform="translate(-4.399 28.013) rotate(-49)"/></g><g class="b" transform="translate(36.473 44.945)"><circle class="e" cx="1.5" cy="1.5" r="1.5"/><circle class="f" cx="1.5" cy="1.5" r="1"/></g></g></g></svg>