<svg xmlns="http://www.w3.org/2000/svg" width="70" height="70" viewBox="0 0 70 70"><defs><style>.a{fill:#eee;}.b{fill:#3e3935;stroke:#eee;}</style></defs><circle class="a" cx="35" cy="35" r="35"/><g transform="translate(10.3 7.9)"><g transform="translate(2.7 5.1)"><path class="b" d="M17.22,34.089,19.8,31.505A8.049,8.049,0,1,1,28.9,22.411l2.584-2.584a10.449,10.449,0,0,0-1.6-3l2.894-2.894.775.775a1.576,1.576,0,0,0,1.085.465,1.6,1.6,0,0,0,1.137-.465,1.56,1.56,0,0,0,0-2.222L32,8.717a1.571,1.571,0,1,0-2.222,2.222l.775.775-2.894,2.842a11.025,11.025,0,0,0-5.116-2.119V8.3h1.085a1.6,1.6,0,0,0,0-3.2H18.305a1.6,1.6,0,1,0,0,3.2H19.39v4.134a11.025,11.025,0,0,0-5.116,2.119l-2.894-2.894.775-.775A1.571,1.571,0,0,0,9.934,8.665L6.162,12.438a1.56,1.56,0,0,0,0,2.222,1.622,1.622,0,0,0,2.274,0l.775-.775,2.945,2.894a10.935,10.935,0,0,0-2.119,5.116H5.9V20.809a1.6,1.6,0,0,0-3.2,0v5.322a1.6,1.6,0,1,0,3.2,0V25.046h4.134a11.025,11.025,0,0,0,2.119,5.116L9.262,33.107l-.775-.775a1.571,1.571,0,0,0-2.222,2.222l3.772,3.772a1.622,1.622,0,0,0,2.274,0,1.56,1.56,0,0,0,0-2.222l-.775-.775,2.894-2.894A7.848,7.848,0,0,0,17.22,34.089Z" transform="translate(-2.7 -5.1)"/><path class="b" d="M27.7,35.674a1.6,1.6,0,0,0,3.2,0,2.183,2.183,0,0,1,2.17-2.17,1.6,1.6,0,0,0,0-3.2A5.507,5.507,0,0,0,27.7,35.674Z" transform="translate(-14.782 -17.278)"/><path class="b" d="M62.675,30.676l-6.511-6.511a1.571,1.571,0,0,0-2.222,2.222l2.119,2.119-3.875,3.875-3.359-3.359a1.56,1.56,0,0,0-2.222,0L28.932,46.695a1.615,1.615,0,0,0-.362,1.654l2.119,5.581-3.824,3.824a1.571,1.571,0,0,0,2.222,2.222l3.824-3.824,5.581,2.119a2.2,2.2,0,0,0,.568.1,1.6,1.6,0,0,0,1.137-.465l3.565-3.565h0L57.869,40.235a1.622,1.622,0,0,0,0-2.274L54.51,34.6l3.875-3.875L60.5,32.846a1.536,1.536,0,1,0,2.17-2.17ZM52.03,41.579l-2.945-2.945a1.571,1.571,0,0,0-2.222,2.222L49.808,43.8l-2.48,2.48-2.945-2.945a1.571,1.571,0,0,0-2.222,2.222L45.106,48.5l-2.48,2.48L39.68,48.038a1.571,1.571,0,0,0-2.222,2.222L40.4,53.205,38.7,54.911l-4.909-1.86-1.86-4.909L47.741,32.329,54.51,39.1Z" transform="translate(-14.153 -14.089)"/></g></g></svg>