<svg xmlns="http://www.w3.org/2000/svg" width="123" height="121" viewBox="0 0 123 121"><defs><style>.a{fill:#fff;}.b{fill:#47545e;}.c{fill:#de0000;}</style></defs><g transform="translate(0 -0.465)"><rect class="a" width="123" height="121" rx="60.5" transform="translate(0 0.465)"/><g transform="translate(21.485 20.497)"><path class="b" d="M1390.132,173.731c-3.172,0-6.256-3.081-9.5-6.329l-.147-.145a55.354,55.354,0,0,1-5.259-5.961.78.78,0,1,1,1.262-.918,54.576,54.576,0,0,0,5.107,5.777l.142.145c3.26,3.26,6.339,6.342,9.03,5.809,2.745-.545,3.408-2.065,3.589-4.338.1-1.206.221-1.8.682-2.116a1.153,1.153,0,0,1,1.051-.076.543.543,0,0,0,.368.034.787.787,0,0,0,.491-.658c.025-.452-.476-.739-.781-.874a8.255,8.255,0,0,0-.874-.3c-.805-.238-1.714-.515-2.043-1.394-.26-.712-.049-1.544.7-2.708a5.037,5.037,0,0,1,6.177-2.057,1.231,1.231,0,0,0,.137.039,6.294,6.294,0,0,0,.025-1.11,9.141,9.141,0,0,1,.015-1.323c.206-1.822,1.483-1.8,2.514-1.79l.383.005c1.168,0,2.7-.523,3.029-1.272.246-.562-.27-1.3-.746-1.809-3.3-3.57-4.232-6.18-4.438-6.891a1.576,1.576,0,0,1,.505-1.728,1.672,1.672,0,0,0,.56-1.107c.285-1.758-.413-3.015-1.714-4.587a.788.788,0,0,1-.177-.447c-.182-2.922-.918-6.707-1.94-7.984a.779.779,0,1,1,1.217-.972c1.434,1.79,2.087,6.13,2.269,8.6a6.826,6.826,0,0,1,1.886,5.632,3.2,3.2,0,0,1-.992,1.964,1.224,1.224,0,0,0-.127.132.219.219,0,0,0,.015.061c.128.452.928,2.865,4.08,6.266,1.438,1.549,1.355,2.752,1.031,3.5-.707,1.615-3.054,2.2-4.458,2.2h-.408a3.121,3.121,0,0,0-.859.044,1.276,1.276,0,0,0-.079.356,8.909,8.909,0,0,0-.01,1.095c.034.967.069,1.966-.638,2.487a1.677,1.677,0,0,1-1.6.11,3.479,3.479,0,0,0-4.341,1.424c-.648,1.016-.55,1.313-.55,1.326.059.147.687.339,1.031.444a8.352,8.352,0,0,1,1.06.371,2.45,2.45,0,0,1,1.7,2.386,2.321,2.321,0,0,1-1.586,2.057,1.959,1.959,0,0,1-.933.059c-.025.165-.049.4-.079.734-.177,2.266-.894,4.962-4.841,5.747A4.865,4.865,0,0,1,1390.132,173.731Z" transform="translate(-1347.7 -109.29)"/><path class="b" d="M1362.068,236.39a.767.767,0,0,1-.559-.238c-.187-.189-18.673-18.988-36.617-19.727a.781.781,0,0,1-.7-1.033,67.579,67.579,0,0,1,2.676-6.275.767.767,0,0,1,.766-.437,51.669,51.669,0,0,1,19.209,6.287,93.5,93.5,0,0,1,9.614,6.415.78.78,0,0,1,.275.422l2.612,10.154c1.93,1.724,3.1,2.919,3.29,3.108a.782.782,0,0,1-.56,1.323Zm-36.05-21.462c12.383.955,24.521,9.58,31.243,15.234l-1.979-7.709a92.564,92.564,0,0,0-9.226-6.128,51.3,51.3,0,0,0-18.02-6.04C1327.609,211.184,1326.691,213.17,1326.018,214.928Z" transform="translate(-1318.768 -156.055)"/><path class="b" d="M1312.479,230.622a.781.781,0,0,1-.613-1.265,75.626,75.626,0,0,1,5.438-6.125.78.78,0,0,1,1.1,1.1,74.013,74.013,0,0,0-5.315,5.993A.782.782,0,0,1,1312.479,230.622Z" transform="translate(-1311.697 -164.195)"/><path class="b" d="M1337.017,201.119a.975.975,0,0,1-.117-.007.782.782,0,0,1-.653-.891l.555-3.68a.785.785,0,0,1,.889-.656.774.774,0,0,1,.653.889l-.555,3.682A.781.781,0,0,1,1337.017,201.119Z" transform="translate(-1325.637 -148.784)"/><path class="b" d="M1326.9,135.543c-.6,0-1.188-.02-1.772-.064a.78.78,0,0,1-.619-.378.772.772,0,0,1-.04-.717c1.68-3.751.487-6.123-1.168-9.405a27.684,27.684,0,0,1-3.29-18c1.542-12.531,9.693-15.874,14.269-15.874l.231,0c1.925-2.168,6.275-4.253,12.054-4.253a28.544,28.544,0,0,1,14.833,4.469c9.987,6.135,12.383,4.12,12.393,4.112a.748.748,0,0,1,.844-.27.794.794,0,0,1,.54.736,9.877,9.877,0,0,1-5.814,8.941,12.171,12.171,0,0,1-4.925,1.036,13.371,13.371,0,0,1-5.146-1.058,29.451,29.451,0,0,1-1.1,4.981c-1.129,3.4-3.515,6.9-5.563,6.9h0c-.756,0-2.038-.447-2.111-3.44a3.683,3.683,0,0,0-3.771-3.85,3.958,3.958,0,0,0-3.462,3.4c-.511,2.676.172,5.025,1.6,8.424,1.271,3.019,1.379,5.578-2.023,8.978C1339.73,133.353,1333.165,135.543,1326.9,135.543Zm-.594-1.569c5.961.145,12.54-1.944,15.452-4.859,3.1-3.1,2.627-5.045,1.689-7.269-1.257-2.988-2.337-5.951-1.7-9.322a5.513,5.513,0,0,1,4.871-4.665,5.222,5.222,0,0,1,5.46,5.367c.035,1.4.354,1.917.55,1.917.854,0,2.917-2.323,4.081-5.831a29.1,29.1,0,0,0,1.158-5.748.777.777,0,0,1,1.178-.6,11.572,11.572,0,0,0,5.391,1.35,10.638,10.638,0,0,0,4.3-.9,7.973,7.973,0,0,0,4.773-6.184,5.36,5.36,0,0,1-1.178.12c-2.725,0-6.673-1.578-11.745-4.694a27.008,27.008,0,0,0-14.018-4.242c-5.509,0-9.614,2.062-11.092,3.982a.8.8,0,0,1-.7.3,4.624,4.624,0,0,0-.491-.02c-1.119,0-10.989.4-12.719,14.5a26.306,26.306,0,0,0,3.135,17.107C1326.261,127.394,1327.636,130.117,1326.306,133.974Z" transform="translate(-1316.256 -86.856)"/><path class="c" d="M1454.016,206.85a.434.434,0,0,1-.113-.012l-10.026-1.449a.782.782,0,1,1,.226-1.547l10.022,1.456a.78.78,0,0,1-.108,1.552Z" transform="translate(-1386.4 -153.305)"/><path class="c" d="M1453.676,216.282a.779.779,0,0,1-.27-.047l-12.717-4.714a.78.78,0,1,1,.545-1.461l12.712,4.709a.78.78,0,0,1-.27,1.512Z" transform="translate(-1384.681 -156.813)"/><path class="c" d="M1443.422,223.391a.806.806,0,0,1-.457-.145l-7.38-5.279a.78.78,0,0,1,.9-1.272l7.385,5.278a.783.783,0,0,1-.452,1.417Z" transform="translate(-1381.885 -160.529)"/><g transform="translate(70.213 73.122)"><g transform="translate(2.858)"><path class="c" d="M1481.641,258.5a.78.78,0,0,1-.781-.781v-.793a.781.781,0,1,1,1.562,0v.793A.78.78,0,0,1,1481.641,258.5Z" transform="translate(-1480.86 -256.137)"/><path class="c" d="M1481.641,269.9a.779.779,0,0,1-.781-.781v-.79a.781.781,0,1,1,1.562,0v.79A.78.78,0,0,1,1481.641,269.9Z" transform="translate(-1480.86 -262.62)"/></g><g transform="translate(0 2.865)"><path class="c" d="M1486.426,264.333a.781.781,0,0,1-.005-1.562l.8,0h0a.781.781,0,0,1,0,1.562l-.786,0Z" transform="translate(-1480.72 -262.769)"/><path class="c" d="M1475.81,264.331h-.785a.781.781,0,1,1,0-1.562h.785a.781.781,0,1,1,0,1.562Z" transform="translate(-1474.244 -262.769)"/></g></g><g transform="translate(70.213 38.518)"><g transform="translate(0 2.858)"><path class="c" d="M1487.216,184.213h-.791a.779.779,0,1,1,0-1.559h.791a.779.779,0,1,1,0,1.559Z" transform="translate(-1480.72 -182.649)"/><path class="c" d="M1475.815,184.206h-.791a.782.782,0,0,1,0-1.564h0l.791.005a.779.779,0,1,1,0,1.559Z" transform="translate(-1474.244 -182.642)"/></g><g transform="translate(2.858)"><path class="c" d="M1481.641,189.786a.777.777,0,0,1-.776-.776l0-.8a.781.781,0,0,1,1.562-.005l0,.8a.781.781,0,0,1-.781.778Z" transform="translate(-1480.86 -182.506)"/><path class="c" d="M1481.641,178.381a.779.779,0,0,1-.781-.781v-.79a.781.781,0,1,1,1.562,0v.79A.78.78,0,0,1,1481.641,178.381Z" transform="translate(-1480.86 -176.026)"/></g></g><path class="c" d="M1482.409,232.47a.759.759,0,0,1-.776-.778.771.771,0,0,1,.221-.55.812.812,0,0,1,1.109,0,.8.8,0,0,1,0,1.1A.789.789,0,0,1,1482.409,232.47Z" transform="translate(-1408.228 -168.692)"/><path class="c" d="M1493.117,197.627a.791.791,0,0,1-.555-.224.822.822,0,0,1-.221-.555.773.773,0,0,1,.221-.552.812.812,0,0,1,1.11,0,.777.777,0,0,1-.555,1.331Z" transform="translate(-1414.311 -148.898)"/><path class="c" d="M1438.166,238.36a2.91,2.91,0,1,1,2.907-2.912A2.914,2.914,0,0,1,1438.166,238.36Zm0-4.262a1.352,1.352,0,1,0,1.346,1.35A1.352,1.352,0,0,0,1438.166,234.1Z" transform="translate(-1381.883 -169.61)"/><g transform="translate(62.89 48.695)"><path class="c" d="M1462.88,244.1a6.422,6.422,0,0,1-3.805-1.247,6.3,6.3,0,0,1-1.665-1.782.781.781,0,1,1,1.321-.832,4.943,4.943,0,0,0,1.262,1.355,4.918,4.918,0,0,0,6.869-1.08l.157-.231a.78.78,0,1,1,1.277.9l-.039.064a1.87,1.87,0,0,1-.157.223,6.384,6.384,0,0,1-4.2,2.551A6.952,6.952,0,0,1,1462.88,244.1Z" transform="translate(-1457.291 -222.471)"/><path class="c" d="M1479.754,207.6a.851.851,0,0,1-.1-.01.778.778,0,0,1-.667-.874,4.924,4.924,0,0,0-6.325-5.349.78.78,0,0,1-.451-1.493,6.442,6.442,0,0,1,5.71.958,6.514,6.514,0,0,1,2.612,6.086A.783.783,0,0,1,1479.754,207.6Z" transform="translate(-1465.448 -199.587)"/><path class="c" d="M1476.358,226.65a6.85,6.85,0,0,1-3.658-1.06.78.78,0,1,1,.825-1.323,5.377,5.377,0,1,0,5.7-9.121.781.781,0,0,1,.825-1.326,6.939,6.939,0,0,1-2.116,12.649A7.141,7.141,0,0,1,1476.358,226.65Z" transform="translate(-1465.833 -207.605)"/></g><path class="c" d="M1489.641,251.828a.781.781,0,0,1-.427-.127l-3.771-2.473a.78.78,0,1,1,.854-1.306l3.771,2.472a.782.782,0,0,1,.226,1.083A.774.774,0,0,1,1489.641,251.828Z" transform="translate(-1410.192 -178.276)"/><path class="c" d="M1457,255.868a.776.776,0,0,1-.6-.287l-5.867-7.137a.788.788,0,0,1,.108-1.1.78.78,0,0,1,1.1.111l5.863,7.139a.774.774,0,0,1-.108,1.1A.764.764,0,0,1,1457,255.868Z" transform="translate(-1390.461 -177.92)"/><path class="c" d="M1456.739,189.6a.779.779,0,0,1-.761-.611.787.787,0,0,1,.6-.93l4.252-.935a.78.78,0,1,1,.334,1.524l-4.252.936A.866.866,0,0,1,1456.739,189.6Z" transform="translate(-1393.645 -143.801)"/></g></g></svg>