<svg xmlns="http://www.w3.org/2000/svg" width="122.873" height="122.822" viewBox="0 0 122.873 122.822"><defs><style>.a{fill:#fff;}.b{fill:#47545e;}.c{fill:#de0000;}.d{fill:none;}</style></defs><g transform="translate(0 0)"><rect class="a" width="122.824" height="122.822" rx="61.411" transform="translate(0 0)"/><g transform="translate(12.721 21.494)"><g transform="translate(21.828 0)"><path class="b" d="M2495.315,540.54a.793.793,0,0,1-.041-1.585,55.185,55.185,0,0,0,7.744-1.132l.185-.04c4.6-.96,8.936-1.865,9.978-4.453,1.057-2.635.135-4.044-1.7-5.46-.967-.751-1.406-1.182-1.416-1.75a1.168,1.168,0,0,1,.514-.943c.144-.12.2-.172.234-.294a.648.648,0,0,0-.2-.673c-.269-.224-.757-.179-1.331.11a6.054,6.054,0,0,0-1.86,1.476.792.792,0,1,1-1.351-.825,7.367,7.367,0,0,1,2.5-2.064,2.641,2.641,0,0,1,3.051.085,2.24,2.24,0,0,1,.719,2.321,2,2,0,0,1-.469.83c.129.11.314.264.583.474,1.825,1.409,3.72,3.513,2.2,7.31-1.356,3.368-6.1,4.361-11.124,5.41l-.184.038a54.911,54.911,0,0,1-7.988,1.164Z" transform="translate(-2449.339 -488.089)"/><path class="b" d="M2498.672,494.895a.789.789,0,0,1-.409-1.471c1.157-.688,1.117-.877,1.077-1.059-.07-.349-.214-.466-.6-.748a3.892,3.892,0,0,1-1.147-1.184c-.917-1.543-.1-2.294.683-3.024l.264-.244c.867-.815,1.635-2.267,1.356-3.047-.209-.588-1.1-.768-1.8-.815-4.937-.342-7.439-1.626-8.088-2.012a1.608,1.608,0,0,1-.828-1.625,1.694,1.694,0,0,0-.354-1.207c-1.012-1.5-2.4-1.947-4.453-2.2a.821.821,0,0,1-.449-.212c-2.164-2.037-5.345-4.318-6.985-4.55a.793.793,0,0,1,.219-1.571c2.308.324,5.814,3.082,7.664,4.787a6.939,6.939,0,0,1,5.316,2.857,3.27,3.27,0,0,1,.628,2.144v.184l.05.032c.409.242,2.683,1.469,7.385,1.793,2.139.147,2.917,1.094,3.191,1.867.6,1.683-.723,3.753-1.76,4.73l-.274.257a3.072,3.072,0,0,0-.583.618,1,1,0,0,0,.184.429,2.451,2.451,0,0,0,.723.718,2.649,2.649,0,0,1,1.212,1.7c.309,1.473-.973,2.236-1.82,2.745A.775.775,0,0,1,2498.672,494.895Z" transform="translate(-2439.083 -458.579)"/><path class="b" d="M2470.323,582.777a.8.8,0,0,1-.409-1.476,55.826,55.826,0,0,1,14.839-6.15,93.509,93.509,0,0,1,11.568-1.942.792.792,0,0,1,.5.117l9.145,5.792a.791.791,0,0,1,.249,1.094.8.8,0,0,1-1.1.247l-8.916-5.647a92.506,92.506,0,0,0-11.084,1.885,53.917,53.917,0,0,0-14.385,5.966A.835.835,0,0,1,2470.323,582.777Z" transform="translate(-2435.306 -516.561)"/><path class="b" d="M2478.507,595.639a.806.806,0,0,1-.689-.394.794.794,0,0,1,.289-1.084c14.78-8.6,36-7.761,36.9-7.721a.791.791,0,0,1,.758.823.813.813,0,0,1-.828.763c-.209-.01-21.665-.858-36.031,7.5A.815.815,0,0,1,2478.507,595.639Z" transform="translate(-2439.9 -523.968)"/><path class="b" d="M2423.1,504.517a.781.781,0,0,1-.494-.177.8.8,0,0,1-.125-1.115c2.982-3.737,4.892-7.993,4.986-11.087.135-4.448-1.571-5.562-3.81-6.554-3.012-1.336-5.869-2.777-7.744-5.712a5.6,5.6,0,0,1,.359-6.841,4.843,4.843,0,0,1,3.53-1.61,5.75,5.75,0,0,1,4.239,1.782c1.077,1.085,1.615,1.132,1.72,1.058.6-.417.673-3.536-1.018-7.178a29.977,29.977,0,0,0-3.146-5.051.814.814,0,0,1-.12-.76.79.79,0,0,1,.578-.506,11.547,11.547,0,0,0,7.479-6.41,8.108,8.108,0,0,0-.757-7.876c-1.062,1.553-4.129,3.8-12.755,5.59-13.343,2.76-19.217,12.565-18.758,17.282a.79.79,0,0,1-.309.711,11.968,11.968,0,0,0-3.7,11.067.792.792,0,1,1-1.566.247,13.848,13.848,0,0,1,3.964-12.306c-.129-5.1,5.5-15.547,20.04-18.549,11.848-2.451,12.027-5.555,12.027-5.585a.755.755,0,0,1,.434-.785.807.807,0,0,1,.913.169A10.014,10.014,0,0,1,2431,454.973a12.834,12.834,0,0,1-7.465,7,29.24,29.24,0,0,1,2.658,4.445c1.636,3.528,2.264,7.913.479,9.15-.678.476-1.885.641-3.75-1.249a4.173,4.173,0,0,0-3.071-1.314,3.283,3.283,0,0,0-2.394,1.092,4.027,4.027,0,0,0-.2,4.929c1.491,2.326,3.63,3.6,7.051,5.116,3.042,1.346,4.9,3.164,4.752,8.048-.1,3.423-2.149,8.033-5.331,12.03A.808.808,0,0,1,2423.1,504.517Z" transform="translate(-2391.512 -444.075)"/><path class="b" d="M2496.835,504.927a.791.791,0,0,1-.349-1.5l3.2-1.591a.792.792,0,1,1,.7,1.419l-3.2,1.591A.781.781,0,0,1,2496.835,504.927Z" transform="translate(-2450.19 -476.452)"/></g><path class="c" d="M2428.4,571.5a.8.8,0,0,1-.374-.1c-8.018-4.328-10.5-8.649-13.622-14.119-1.212-2.112-2.463-4.3-4.179-6.759-8.517-12.194-27-20.4-33.134-20.287l21.585,31.089,11.668,8.744a.791.791,0,1,1-.947,1.266l-11.778-8.816a.917.917,0,0,1-.17-.187l-22.389-32.239a.811.811,0,0,1-.1-.708.8.8,0,0,1,.509-.5c5.534-1.79,26.861,7.562,36.051,20.728,1.766,2.525,3.087,4.841,4.259,6.886,3,5.245,5.375,9.394,13,13.51a.794.794,0,0,1,.325,1.072A.808.808,0,0,1,2428.4,571.5Z" transform="translate(-2360.371 -491.559)"/><path class="c" d="M2370.185,563.5a.81.81,0,0,1-.658-.34l-27.165-39.135a3.445,3.445,0,0,1,.867-4.782l6.063-4.211a3.433,3.433,0,0,1,4.777.868l25.988,37.427,11.668,8.744a.792.792,0,0,1,.159,1.109.784.784,0,0,1-1.107.157L2379,554.524a.907.907,0,0,1-.17-.187L2352.768,516.8a1.849,1.849,0,0,0-2.573-.469l-6.063,4.211a1.852,1.852,0,0,0-.464,2.575l27.165,39.137a.789.789,0,0,1-.2,1.1A.827.827,0,0,1,2370.185,563.5Z" transform="translate(-2341.752 -483.564)"/></g><g transform="translate(26.759 37.816)"><g transform="translate(21.828)"><path class="d" d="M2496.325,540.758a55.467,55.467,0,0,0,7.868-1.144c4.852-1.015,9.514-1.957,10.731-4.974s.11-4.8-1.945-6.383-.7-1.062-.393-2.144-.7-2.476-2.653-1.488a6.6,6.6,0,0,0-2.174,1.77" transform="translate(-2451.139 -489.911)"/><path class="d" d="M2478.058,471.721c1.979.282,5.355,2.815,7.424,4.757,1.97.25,3.75.683,5.007,2.543,1.017,1.486-.01,2.042.932,2.6a18.486,18.486,0,0,0,7.734,1.9c4.148.282,2.458,3.8.943,5.228-.952.9-1.466,1.189-.813,2.286.643,1.074,1.6,1,1.845,2.179.16.768-.324,1.229-1.45,1.9" transform="translate(-2440.885 -460.402)"/><path class="d" d="M2471.34,582.989a54.85,54.85,0,0,1,14.615-6.056,92.088,92.088,0,0,1,11.458-1.93l9.145,5.794" transform="translate(-2437.114 -518.379)"/><path class="d" d="M2515.995,588.255s-21.731-.97-36.47,7.614" transform="translate(-2441.709 -525.799)"/><path class="d" d="M2393.5,482.288a12.832,12.832,0,0,1,4-11.828c-.479-4.919,5.29-15.218,19.387-18.133,13.139-2.715,12.656-6.41,12.656-6.41a9.134,9.134,0,0,1,1.745,9.783,12.194,12.194,0,0,1-8.038,6.871,31.071,31.071,0,0,1,3.241,5.211c2.4,5.191,1.944,10.99-1.985,7.011a4.514,4.514,0,0,0-6.621-.2,4.814,4.814,0,0,0-.28,5.882c1.671,2.62,4.133,3.966,7.4,5.417,2.563,1.137,4.423,2.556,4.279,7.3-.1,3.311-2.134,7.759-5.156,11.561" transform="translate(-2393.316 -445.918)"/><line class="d" y1="1.591" x2="3.201" transform="translate(45.854 25.285)"/></g><path class="d" d="M2429.421,571.7c-10.851-5.851-11.3-11.708-17.532-20.638-9.169-13.126-30.047-22.084-35.158-20.423l22.383,32.241,11.768,8.82" transform="translate(-2362.178 -493.362)"/><path class="d" d="M2392.258,563.721l-11.768-8.821-26.063-37.532a2.637,2.637,0,0,0-3.675-.668l-6.063,4.208a2.649,2.649,0,0,0-.663,3.682l27.165,39.13" transform="translate(-2343.554 -485.387)"/></g></g></svg>