<svg xmlns="http://www.w3.org/2000/svg" width="70" height="70" viewBox="0 0 70 70"><defs><style>.a{fill:#eee;}.b{fill:#3e3935;stroke:#3e3935;}</style></defs><circle class="a" cx="35" cy="35" r="35"/><g transform="translate(11 10)"><path class="b" d="M1384.256,155.236c-1.934,0-3.814-1.878-5.793-3.859l-.09-.088a33.729,33.729,0,0,1-3.206-3.634.476.476,0,1,1,.769-.56,33.278,33.278,0,0,0,3.113,3.522l.087.088c1.988,1.988,3.865,3.866,5.505,3.542,1.673-.332,2.078-1.259,2.188-2.645.06-.735.135-1.1.416-1.29a.7.7,0,0,1,.641-.046.331.331,0,0,0,.224.021.48.48,0,0,0,.3-.4c.015-.275-.29-.451-.476-.533a5.047,5.047,0,0,0-.533-.184c-.491-.145-1.045-.314-1.245-.85a1.886,1.886,0,0,1,.425-1.651,3.071,3.071,0,0,1,3.766-1.254.751.751,0,0,0,.084.024,3.837,3.837,0,0,0,.015-.677,5.553,5.553,0,0,1,.009-.807c.126-1.111.9-1.1,1.533-1.091l.234,0c.712,0,1.646-.319,1.847-.775.15-.343-.165-.79-.455-1.1a11.269,11.269,0,0,1-2.706-4.2.961.961,0,0,1,.308-1.054,1.019,1.019,0,0,0,.341-.675,3.309,3.309,0,0,0-1.045-2.8.481.481,0,0,1-.108-.272c-.111-1.781-.56-4.089-1.182-4.868a.475.475,0,1,1,.742-.593c.874,1.091,1.273,3.737,1.383,5.245a4.162,4.162,0,0,1,1.15,3.434,1.951,1.951,0,0,1-.605,1.2.742.742,0,0,0-.078.081.135.135,0,0,0,.009.037,10.326,10.326,0,0,0,2.488,3.82c.877.944.826,1.678.629,2.132-.431.985-1.862,1.343-2.718,1.343h-.249a1.9,1.9,0,0,0-.524.027.778.778,0,0,0-.048.217,5.474,5.474,0,0,0-.006.668c.021.59.042,1.2-.389,1.516a1.022,1.022,0,0,1-.976.067,2.121,2.121,0,0,0-2.646.868c-.4.62-.335.8-.335.808.036.09.419.206.629.271a5.088,5.088,0,0,1,.646.226,1.494,1.494,0,0,1,1.039,1.455,1.415,1.415,0,0,1-.967,1.254,1.194,1.194,0,0,1-.569.036c-.015.1-.03.244-.048.447a3.392,3.392,0,0,1-2.952,3.5A2.964,2.964,0,0,1,1384.256,155.236Z" transform="translate(-1358.387 -115.948)"/><path class="b" d="M1347.265,225.573a.468.468,0,0,1-.341-.145c-.114-.115-11.385-11.576-22.324-12.027a.476.476,0,0,1-.429-.63,41.1,41.1,0,0,1,1.631-3.826.467.467,0,0,1,.467-.266,31.5,31.5,0,0,1,11.711,3.833,56.981,56.981,0,0,1,5.861,3.911.475.475,0,0,1,.167.258l1.593,6.191c1.177,1.051,1.892,1.78,2.006,1.9a.476.476,0,0,1-.341.807Zm-21.979-13.085c7.55.582,14.95,5.841,19.048,9.288l-1.207-4.7a56.425,56.425,0,0,0-5.625-3.736,31.278,31.278,0,0,0-10.987-3.682C1326.257,210.205,1325.7,211.416,1325.287,212.488Z" transform="translate(-1320.866 -176.595)"/><path class="b" d="M1312.174,227.649a.476.476,0,0,1-.374-.771,46.12,46.12,0,0,1,3.315-3.734.476.476,0,0,1,.673.672,45.119,45.119,0,0,0-3.24,3.654A.477.477,0,0,1,1312.174,227.649Z" transform="translate(-1311.697 -187.151)"/><path class="b" d="M1336.713,199.072a.592.592,0,0,1-.072,0,.477.477,0,0,1-.4-.543l.338-2.244a.479.479,0,0,1,.542-.4.472.472,0,0,1,.4.542l-.338,2.245A.476.476,0,0,1,1336.713,199.072Z" transform="translate(-1329.775 -167.165)"/><path class="b" d="M1324.1,116.539c-.365,0-.724-.012-1.081-.039a.476.476,0,0,1-.377-.23.47.47,0,0,1-.024-.437c1.024-2.287.3-3.733-.712-5.734a16.878,16.878,0,0,1-2.006-10.973c.94-7.64,5.909-9.678,8.7-9.678l.141,0c1.173-1.322,3.826-2.593,7.349-2.593a17.4,17.4,0,0,1,9.043,2.724c6.089,3.74,7.55,2.512,7.556,2.507a.456.456,0,0,1,.515-.165.485.485,0,0,1,.329.449,6.022,6.022,0,0,1-3.544,5.451,7.42,7.42,0,0,1-3,.632,8.152,8.152,0,0,1-3.137-.645,17.961,17.961,0,0,1-.671,3.037c-.688,2.07-2.143,4.208-3.392,4.208h0c-.461,0-1.242-.273-1.287-2.1a2.245,2.245,0,0,0-2.3-2.347,2.413,2.413,0,0,0-2.11,2.073c-.312,1.631.1,3.064.976,5.136.775,1.841.841,3.4-1.234,5.473C1331.921,115.2,1327.919,116.539,1324.1,116.539Zm-.362-.956c3.634.088,7.646-1.185,9.421-2.962,1.889-1.889,1.6-3.076,1.03-4.432a9.658,9.658,0,0,1-1.036-5.683,3.361,3.361,0,0,1,2.97-2.844,3.184,3.184,0,0,1,3.329,3.272c.021.853.216,1.169.335,1.169.521,0,1.778-1.416,2.488-3.555a17.751,17.751,0,0,0,.706-3.5.474.474,0,0,1,.718-.365,7.055,7.055,0,0,0,3.287.823,6.486,6.486,0,0,0,2.62-.551,4.861,4.861,0,0,0,2.91-3.77,3.267,3.267,0,0,1-.719.073c-1.661,0-4.068-.962-7.161-2.862a16.466,16.466,0,0,0-8.547-2.586c-3.359,0-5.861,1.257-6.762,2.428a.485.485,0,0,1-.428.181,2.82,2.82,0,0,0-.3-.012c-.682,0-6.7.245-7.755,8.839a16.039,16.039,0,0,0,1.911,10.429C1323.709,111.571,1324.548,113.231,1323.737,115.582Z" transform="translate(-1317.61 -86.856)"/><path class="b" d="M1417.8,161.731a.481.481,0,0,1-.437-.29.476.476,0,0,1,.249-.624l.97-.415a13.1,13.1,0,0,1-1.216-1.266.476.476,0,0,1,.719-.626,8.748,8.748,0,0,0,1.689,1.612.476.476,0,0,1-.072.834l-1.712.735A.478.478,0,0,1,1417.8,161.731Z" transform="translate(-1389.456 -139.52)"/><path class="b" d="M1449.8,205.673a.267.267,0,0,1-.069-.007l-6.113-.883a.477.477,0,1,1,.138-.943l6.11.888a.475.475,0,0,1-.066.946Z" transform="translate(-1408.573 -173.028)"/><path class="b" d="M1448.408,213.834a.475.475,0,0,1-.165-.028l-7.753-2.874a.475.475,0,1,1,.332-.891l7.75,2.871a.476.476,0,0,1-.165.922Z" transform="translate(-1406.344 -177.578)"/><path class="b" d="M1440.235,220.722a.492.492,0,0,1-.278-.088l-4.5-3.218a.476.476,0,0,1,.551-.775l4.5,3.218a.477.477,0,0,1-.276.864Z" transform="translate(-1402.718 -182.397)"/><g transform="translate(42.807 44.58)"><g transform="translate(1.742)"><path class="b" d="M1481.336,257.575a.475.475,0,0,1-.476-.476v-.483a.476.476,0,1,1,.952,0v.483A.476.476,0,0,1,1481.336,257.575Z" transform="translate(-1480.86 -256.137)"/><path class="b" d="M1481.336,268.985a.475.475,0,0,1-.476-.476v-.482a.476.476,0,1,1,.952,0v.482A.476.476,0,0,1,1481.336,268.985Z" transform="translate(-1480.86 -264.544)"/></g><g transform="translate(0 1.747)"><path class="b" d="M1486.121,263.723a.476.476,0,0,1,0-.952l.485,0h0a.476.476,0,0,1,0,.952l-.479,0Z" transform="translate(-1482.643 -262.769)"/><path class="b" d="M1475.2,263.721h-.479a.476.476,0,1,1,0-.952h.479a.476.476,0,1,1,0,.952Z" transform="translate(-1474.244 -262.769)"/></g></g><g transform="translate(42.807 23.483)"><g transform="translate(0 1.742)"><path class="b" d="M1486.6,183.6h-.482a.475.475,0,1,1,0-.95h.482a.475.475,0,1,1,0,.95Z" transform="translate(-1482.643 -182.651)"/><path class="b" d="M1475.2,183.6h-.482a.477.477,0,0,1,0-.954h0l.482,0a.475.475,0,1,1,0,.95Z" transform="translate(-1474.244 -182.642)"/></g><g transform="translate(1.742)"><path class="b" d="M1481.336,188.868a.474.474,0,0,1-.473-.473l0-.485a.476.476,0,0,1,.952,0l0,.487a.476.476,0,0,1-.476.474Z" transform="translate(-1480.86 -184.43)"/><path class="b" d="M1481.336,177.462a.475.475,0,0,1-.476-.476V176.5a.476.476,0,1,1,.952,0v.482A.475.475,0,0,1,1481.336,177.462Z" transform="translate(-1480.86 -176.026)"/></g></g><path class="b" d="M1482.106,231.866a.463.463,0,0,1-.473-.475.47.47,0,0,1,.135-.335.5.5,0,0,1,.676,0,.488.488,0,0,1,0,.674A.481.481,0,0,1,1482.106,231.866Z" transform="translate(-1436.88 -192.983)"/><path class="b" d="M1492.814,197.022a.482.482,0,0,1-.338-.136.5.5,0,0,1-.135-.338.471.471,0,0,1,.135-.337.5.5,0,0,1,.677,0,.474.474,0,0,1-.338.811Z" transform="translate(-1444.768 -167.314)"/><path class="b" d="M1437.03,236.088a1.774,1.774,0,1,1,1.772-1.775A1.777,1.777,0,0,1,1437.03,236.088Zm0-2.6a.824.824,0,1,0,.82.823A.824.824,0,0,0,1437.03,233.489Z" transform="translate(-1402.716 -194.173)"/><g transform="translate(38.342 29.688)"><path class="b" d="M1460.7,242.45a3.916,3.916,0,0,1-2.32-.761,3.837,3.837,0,0,1-1.015-1.087.476.476,0,1,1,.805-.507,3.013,3.013,0,0,0,.769.826,3,3,0,0,0,4.188-.658l.1-.141a.476.476,0,0,1,.779.546l-.024.039a1.13,1.13,0,0,1-.1.136,3.892,3.892,0,0,1-2.56,1.555A4.241,4.241,0,0,1,1460.7,242.45Z" transform="translate(-1457.291 -229.264)"/><path class="b" d="M1476.591,204.472a.517.517,0,0,1-.063-.006.474.474,0,0,1-.407-.533,3,3,0,0,0-3.856-3.261.475.475,0,0,1-.275-.91,3.927,3.927,0,0,1,3.481.584,3.971,3.971,0,0,1,1.593,3.71A.478.478,0,0,1,1476.591,204.472Z" transform="translate(-1467.87 -199.587)"/><path class="b" d="M1474.786,221.6a4.176,4.176,0,0,1-2.23-.647.475.475,0,1,1,.5-.807,3.278,3.278,0,1,0,3.473-5.561.476.476,0,0,1,.5-.808,4.231,4.231,0,0,1-1.29,7.711A4.355,4.355,0,0,1,1474.786,221.6Z" transform="translate(-1468.369 -209.985)"/></g><path class="b" d="M1487.865,250.254a.476.476,0,0,1-.26-.078l-2.3-1.507a.476.476,0,1,1,.521-.8l2.3,1.507a.477.477,0,0,1,.138.66A.472.472,0,0,1,1487.865,250.254Z" transform="translate(-1439.427 -205.412)"/><path class="b" d="M1454.407,252.472a.473.473,0,0,1-.368-.175l-3.577-4.351a.476.476,0,1,1,.736-.6l3.574,4.353a.472.472,0,0,1-.066.668A.466.466,0,0,1,1454.407,252.472Z" transform="translate(-1413.84 -204.949)"/><path class="b" d="M1456.435,188.624a.475.475,0,0,1-.464-.373.48.48,0,0,1,.365-.567l2.592-.57a.476.476,0,1,1,.2.929l-2.592.57A.529.529,0,0,1,1456.435,188.624Z" transform="translate(-1417.969 -160.703)"/></g></svg>